<svg width="56" height="54" viewBox="0 0 56 54" fill="none" xmlns="http://www.w3.org/2000/svg">
<g clip-path="url(#clip0_963_1330)">
<g filter="url(#filter0_d_963_1330)">
<path fill-rule="evenodd" clip-rule="evenodd" d="M28 4.5C15.113 4.5 4.66667 14.5733 4.66667 27C4.66667 39.4268 15.113 49.5 28 49.5C40.887 49.5 51.3333 39.4268 51.3333 27C51.3333 14.5733 40.887 4.5 28 4.5ZM19.8333 21.375C19.8333 20.3408 20.0446 19.3168 20.455 18.3614C20.8654 17.4059 21.467 16.5378 22.2253 15.8065C22.9836 15.0753 23.8839 14.4952 24.8748 14.0994C25.8656 13.7037 26.9275 13.5 28 13.5C29.0725 13.5 30.1344 13.7037 31.1252 14.0994C32.1161 14.4952 33.0164 15.0753 33.7747 15.8065C34.5331 16.5378 35.1346 17.4059 35.545 18.3614C35.9554 19.3168 36.1667 20.3408 36.1667 21.375C36.1667 23.4636 35.3063 25.4666 33.7747 26.9435C32.2432 28.4203 30.1659 29.25 28 29.25C25.8341 29.25 23.7568 28.4203 22.2253 26.9435C20.6937 25.4666 19.8333 23.4636 19.8333 21.375ZM42.602 38.214C40.8548 40.332 38.6342 42.0423 36.1058 43.2173C33.5775 44.3923 30.8067 45.0017 28 45C25.1933 45.0017 22.4225 44.3923 19.8942 43.2173C17.3658 42.0423 15.1452 40.332 13.398 38.214C17.1803 35.5972 22.3417 33.75 28 33.75C33.6583 33.75 38.8197 35.5972 42.602 38.214Z" fill="white"/>
<path d="M27.9997 5C40.6278 5 50.8337 14.8664 50.8337 27C50.8337 39.1336 40.6278 49 27.9997 49C15.3717 48.9998 5.16667 39.1335 5.16667 27C5.16667 14.8665 15.3717 5.00017 27.9997 5ZM27.9997 33.25C22.2355 33.2501 16.976 35.1309 13.1139 37.8027L12.6657 38.1123L13.0124 38.5322C14.8078 40.7087 17.0884 42.465 19.6833 43.6709C22.278 44.8767 25.1208 45.5007 27.9997 45.499C30.6987 45.5007 33.3658 44.9519 35.8268 43.8896L36.3161 43.6709C38.911 42.4649 41.1925 40.7088 42.988 38.5322L43.3337 38.1123L42.8864 37.8027C39.0242 35.1308 33.7641 33.25 27.9997 33.25ZM27.9997 13C26.8641 13 25.7392 13.2154 24.6891 13.6348C23.7702 14.0018 22.9241 14.5192 22.1872 15.1631L21.8786 15.4463C21.1736 16.1261 20.5949 16.9181 20.1686 17.7871L19.9958 18.1641C19.5587 19.1815 19.3337 20.2726 19.3337 21.375C19.3337 23.4631 20.14 25.4676 21.5817 27.0029L21.8786 27.3037C23.5051 28.8719 25.7072 29.7499 27.9997 29.75C30.1493 29.75 32.2196 28.9779 33.8102 27.5889L34.1217 27.3037C35.749 25.7346 36.6667 23.6022 36.6667 21.375C36.6667 20.4103 36.4938 19.4544 36.1579 18.5488L36.0046 18.1641C35.6222 17.2739 35.0838 16.4561 34.4157 15.7451L34.1217 15.4463C33.3163 14.6697 32.3612 14.0542 31.3112 13.6348C30.2611 13.2153 29.1353 13 27.9997 13Z" stroke="black"/>
</g>
</g>
<defs>
<filter id="filter0_d_963_1330" x="0.666666" y="4.5" width="54.6667" height="53" filterUnits="userSpaceOnUse" color-interpolation-filters="sRGB">
<feFlood flood-opacity="0" result="BackgroundImageFix"/>
<feColorMatrix in="SourceAlpha" type="matrix" values="0 0 0 0 0 0 0 0 0 0 0 0 0 0 0 0 0 0 127 0" result="hardAlpha"/>
<feOffset dy="4"/>
<feGaussianBlur stdDeviation="2"/>
<feComposite in2="hardAlpha" operator="out"/>
<feColorMatrix type="matrix" values="0 0 0 0 0 0 0 0 0 0 0 0 0 0 0 0 0 0 0.25 0"/>
<feBlend mode="normal" in2="BackgroundImageFix" result="effect1_dropShadow_963_1330"/>
<feBlend mode="normal" in="SourceGraphic" in2="effect1_dropShadow_963_1330" result="shape"/>
</filter>
<clipPath id="clip0_963_1330">
<rect width="56" height="54" fill="white"/>
</clipPath>
</defs>
</svg>
