<svg width="43" height="44" viewBox="0 0 43 44" fill="none" xmlns="http://www.w3.org/2000/svg">
<rect x="0.5" y="0.5" width="42" height="43" rx="9.5" fill="#D09E9E" stroke="#716B6B"/>
<path d="M6.4585 6.77777H36.5418V9.72222H6.4585V6.77777Z" fill="#CE4242"/>
<path d="M33.9768 7.5139H8.95459V35.2285C8.95459 38.2171 11.5592 39.3654 14.7733 39.3654H28.158C31.3722 39.3654 33.9768 38.2171 33.9768 35.2285V7.5139ZM17.5418 6.77779V3.83334H25.4585V6.77779" fill="#CE4242"/>
<path d="M33.375 22.2361V37.4154L31.2375 39.1666H19.125L33.375 22.2361Z" fill="#9C3333"/>
<path d="M17.5418 6.77779V3.83334H25.4585V6.77779M33.3752 13.4028V36.2222C33.3752 37.0032 33.0415 37.7521 32.4477 38.3043C31.8538 38.8565 31.0483 39.1667 30.2085 39.1667H12.7918C11.952 39.1667 11.1465 38.8565 10.5527 38.3043C9.95879 37.7521 9.62516 37.0032 9.62516 36.2222V13.4028M25.4585 15.7951V35.4861M17.5418 15.7951V35.4861M6.4585 6.77779H36.5418V9.72223H6.4585V6.77779Z" stroke="black" stroke-width="0.5" stroke-miterlimit="10" stroke-linecap="round" stroke-linejoin="round"/>
</svg>
