<svg width="43" height="44" viewBox="0 0 43 44" fill="none" xmlns="http://www.w3.org/2000/svg">
<rect x="0.5" y="0.5" width="42" height="43" rx="9.5" fill="#87A2C5" stroke="#716B6B"/>
<path d="M7.72602 34.0431L10.0764 36.3938L6.46094 37.8575L7.72602 34.0431Z" fill="#3F3F3F"/>
<path d="M9.93701 26.7997L22.0292 14.7059L29.2941 21.9718L17.3047 33.9628" fill="#F4AA41"/>
<path d="M7.60938 33.6654L9.86662 27.7753L16.2242 34.133L10.3341 36.3906" fill="#A57939"/>
<path d="M25.917 10.8182L30.7346 6L37.9995 13.2659L33.2224 18.043" fill="#EA5A47"/>
<path d="M21.248 15.4882L26.1812 10.5543L33.4462 17.8202L28.5547 22.7123" fill="#9B9B9A"/>
<path d="M28.7507 8.88763L31.0009 6.63779L37.3578 12.9955L35.1269 15.2267M10.2695 27.3719L16.6271 33.7296M10.3171 36.3976L16.2238 34.133L32.9159 17.4387L26.5583 11.0803L9.86625 27.7752L7.59424 33.6892L10.3171 36.3976Z" stroke="black" stroke-width="0.5" stroke-miterlimit="10" stroke-linecap="round" stroke-linejoin="round"/>
<path d="M7.59966 33.6756L6 38L10.334 36.3905M22.0563 15.9653L28.1647 22.0751" stroke="black" stroke-width="0.5" stroke-miterlimit="10" stroke-linecap="round" stroke-linejoin="round"/>
</svg>
