<svg width="45" height="47" viewBox="0 0 45 47" fill="none" xmlns="http://www.w3.org/2000/svg">
<path d="M44.4252 28.9865L40.3879 26.7051C40.7954 24.5535 40.7954 22.3462 40.3879 20.1946L44.4252 17.9132C44.8896 17.6535 45.0981 17.1156 44.9465 16.6148C43.8945 13.3132 42.1033 10.3269 39.7624 7.84142C39.4023 7.46118 38.8147 7.36844 38.3598 7.62812L34.3225 9.90956C32.626 8.48134 30.6737 7.37771 28.5603 6.65433V2.10072C28.5603 1.58137 28.1907 1.12693 27.6694 1.01564C24.1913 0.255162 20.6278 0.292259 17.3203 1.01564C16.799 1.12693 16.4294 1.58137 16.4294 2.10072V6.6636C14.3255 7.39626 12.3731 8.49989 10.6672 9.91883L6.6394 7.63739C6.17501 7.37772 5.5969 7.46118 5.23676 7.8507C2.89588 10.3269 1.10468 13.3132 0.0527049 16.6241C-0.108409 17.1249 0.109568 17.6628 0.573954 17.9224L4.61127 20.2039C4.20374 22.3555 4.20374 24.5627 4.61127 26.7143L0.573954 28.9958C0.109568 29.2555 -0.0989312 29.7934 0.0527049 30.2942C1.10468 33.5958 2.89588 36.582 5.23676 39.0675C5.5969 39.4478 6.18449 39.5405 6.6394 39.2808L10.6767 36.9994C12.3731 38.4276 14.3255 39.5312 16.4389 40.2546V44.8175C16.4389 45.3368 16.8085 45.7913 17.3297 45.9026C20.8079 46.663 24.3713 46.6259 27.6789 45.9026C28.2002 45.7913 28.5698 45.3368 28.5698 44.8175V40.2546C30.6737 39.5219 32.626 38.4183 34.3319 36.9994L38.3693 39.2808C38.8336 39.5405 39.4118 39.457 39.7719 39.0675C42.1128 36.5913 43.904 33.605 44.956 30.2942C45.0981 29.7841 44.8896 29.2462 44.4252 28.9865ZM22.4949 30.8692C18.3154 30.8692 14.913 27.5397 14.913 23.4498C14.913 19.3599 18.3154 16.0305 22.4949 16.0305C26.6743 16.0305 30.0767 19.3599 30.0767 23.4498C30.0767 27.5397 26.6743 30.8692 22.4949 30.8692Z" fill="white"/>
</svg>
