<svg width="42" height="39" viewBox="0 0 42 39" fill="none" xmlns="http://www.w3.org/2000/svg">
<path d="M39.7793 0.500977L39.2559 38.4912C39.1564 38.4893 39.0474 38.4881 38.9346 38.4854C38.499 38.4749 38.0307 38.4569 37.793 38.4336C37.7826 38.4242 37.7641 38.4045 37.7422 38.3652C37.693 38.277 37.653 38.1308 37.6738 37.9443C37.7047 37.6813 37.8457 36.9981 38.001 36.2334C38.1131 35.6811 38.232 35.0905 38.3057 34.6426L38.3623 34.248C38.3895 34.0085 38.4159 33.0861 38.4414 31.8799C38.4673 30.6544 38.4929 29.0945 38.5146 27.5459C38.5471 25.233 38.5714 22.924 38.5771 21.7998L38.5762 21.1143C38.5639 20.8117 38.424 20.5341 38.2832 20.3105C38.1372 20.0786 37.945 19.8366 37.7549 19.6025C37.363 19.12 36.9566 18.6353 36.6885 18.1055C36.6859 18.0933 36.68 18.0664 36.6738 18.0195C36.6621 17.9301 36.6519 17.8046 36.6436 17.6426C36.627 17.3196 36.6202 16.8809 36.623 16.3535C36.6286 15.3003 36.6707 13.9175 36.7383 12.4521C36.8568 9.88184 37.0513 7.08561 37.2539 5.37891L37.3408 4.71777C37.5679 3.19135 38.0337 2.14864 38.501 1.4834C38.9227 0.883051 39.3198 0.622771 39.5264 0.543945L39.6035 0.520508H39.6045C39.6789 0.505355 39.7364 0.501349 39.7793 0.500977ZM1.22559 7.90137C1.17998 9.78897 1.11624 12.5414 1.11621 13.0137C1.11621 13.2477 1.16391 13.4776 1.28418 13.666C1.40791 13.8598 1.62267 14.0214 1.90137 14.0234C2.17406 14.0253 2.38749 13.8732 2.51562 13.6963C2.61159 13.5638 2.67138 13.4074 2.7002 13.2412L2.71875 13.0723V13.0664C2.72174 12.996 2.72874 12.766 2.74023 12.4297C2.74089 12.7868 2.74121 13.041 2.74121 13.1387C2.74121 13.5598 2.97318 14.0494 3.49023 14.085C3.9522 14.1165 4.21865 13.7652 4.2959 13.4014C4.38414 13.7561 4.67012 14.029 5.03613 14.0615C5.27143 14.0823 5.5143 13.995 5.68359 13.7939C5.80426 13.6507 5.86626 13.4769 5.88867 13.2979L5.89844 13.1182V13.1152L5.91016 10.3154C5.91111 10.3633 5.91311 10.4111 5.91406 10.459C5.93408 11.4603 5.95319 12.4508 5.96777 13.1904C5.97506 13.56 5.98113 13.8674 5.98535 14.082C5.98589 14.1096 5.98585 14.1357 5.98633 14.1602L3.64355 15.8887L3.44238 16.0371L3.44043 16.2861L3.32031 29.8154V29.9131C3.31993 29.9761 3.31913 30.0689 3.31836 30.1865C3.31682 30.4219 3.31469 30.7584 3.31152 31.1621C3.30519 31.9695 3.29563 33.0465 3.28223 34.124C3.26882 35.2018 3.25161 36.2784 3.23047 37.0869C3.22095 37.451 3.20918 37.7577 3.19824 37.9844C3.11191 37.9799 3.01548 37.9765 2.91309 37.9678C2.60691 37.9416 2.2057 37.8948 1.95801 37.8809C1.81661 37.8729 1.75102 37.8306 1.7168 37.7949C1.68874 37.7656 1.65169 37.7099 1.62988 37.6074L1.61426 37.4883V37.4873L1.61035 37.3301C1.61768 36.9378 1.7312 36.3705 1.88672 35.6924C2.03395 35.0504 2.21366 34.329 2.31152 33.6943L2.34766 33.4287C2.37861 33.1696 2.41125 32.0937 2.44434 30.6807C2.47791 29.2468 2.51285 27.4211 2.54395 25.625C2.57504 23.8287 2.60216 22.0608 2.62207 20.7422C2.63202 20.0832 2.64096 19.5365 2.64648 19.1543C2.64924 18.9634 2.65089 18.8131 2.65234 18.7109C2.65307 18.6599 2.65393 18.6201 2.6543 18.5938V18.5547L2.1543 18.5469L2.6543 18.5537L2.66016 18.1514L2.27246 18.0615H2.27344L2.27051 18.0605H2.26953L2.25586 18.0566C2.23747 18.0509 2.20638 18.0395 2.16504 18.0225C2.08186 17.9881 1.9591 17.9281 1.82031 17.8311C1.58065 17.6633 1.28375 17.3793 1.05176 16.9033L0.957031 16.6875C0.894585 16.5283 0.844077 16.1878 0.824219 15.6826C0.805181 15.1983 0.815398 14.6251 0.839844 14.0459C0.888864 12.8846 0.992612 11.7483 1.02441 11.292C1.08435 10.4459 1.14399 9.28841 1.20117 8.29199C1.20883 8.15854 1.218 8.02805 1.22559 7.90137Z" fill="white" stroke="white"/>
<path d="M40.063 20.7496C40.0991 22.2248 40.1477 24.1991 40.1958 26.1939C40.2922 30.1907 40.3882 34.2545 40.3882 34.5816C40.3882 34.8152 40.436 35.1388 40.4917 35.4722L40.6909 36.6324V36.6343C40.7491 36.9877 40.8007 37.3861 40.812 37.732C40.8177 37.9051 40.8127 38.0534 40.7974 38.1695C40.7898 38.2268 40.7803 38.2708 40.771 38.3023C40.7649 38.323 40.7587 38.3343 40.7563 38.3394C40.7269 38.3845 40.6866 38.4217 40.5776 38.4498C40.4462 38.4836 40.2683 38.4918 40.0054 38.4918C39.7108 38.4918 39.3976 38.5089 39.0894 38.4859C38.9407 38.4748 38.8221 38.4562 38.7368 38.4302C38.7108 38.4223 38.6927 38.4128 38.6792 38.4068C38.678 38.3992 38.6755 38.3906 38.6743 38.3804C38.6651 38.3018 38.6644 38.1865 38.6772 38.0328C38.7028 37.7266 38.7749 37.3378 38.8677 36.9214C38.9598 36.5082 39.068 36.0868 39.1626 35.7154C39.2081 35.5366 39.2527 35.363 39.2896 35.2076L39.3716 34.8101C39.3919 34.6791 39.4034 34.3704 39.4126 33.9869C39.4223 33.5829 39.4302 33.0465 39.436 32.4234C39.4477 31.1764 39.4522 29.5735 39.4526 27.9683C39.4531 26.3655 39.4493 24.7555 39.4438 23.4918L39.4253 21.0933C39.4174 20.7782 39.3089 20.4741 39.1821 20.2183C39.1425 20.1383 39.0983 20.0604 39.0532 19.9839L39.3472 20.0572L39.6567 20.1334L39.8569 19.8853L40.0366 19.6617C40.0444 19.9806 40.0531 20.3464 40.063 20.7496ZM5.93506 16.3707C5.92947 16.4144 5.92495 16.4603 5.91748 16.5074C5.8697 16.8085 5.7883 17.114 5.66748 17.3336L5.61377 17.4214C5.38929 17.7471 5.15713 17.9153 4.99658 18.0015C4.91555 18.045 4.85072 18.0694 4.81104 18.0816C4.79646 18.0861 4.78489 18.0887 4.77783 18.0904L4.35205 18.1519L4.3501 18.5836V18.6246C4.34997 18.6519 4.34937 18.6928 4.34912 18.7457C4.34862 18.8513 4.34804 19.0062 4.34717 19.2037C4.34543 19.5992 4.34378 20.1657 4.34131 20.8482C4.33636 22.2132 4.33053 24.0437 4.32861 25.9058C4.3267 27.7677 4.32829 29.6626 4.3374 31.1548C4.34414 32.2572 4.35515 33.1663 4.37354 33.6724L4.39404 34.0367L4.39502 34.0386C4.45651 34.57 4.68269 35.4869 4.84521 36.2554C4.92983 36.6556 4.99956 37.0255 5.03467 37.3218C5.05224 37.4702 5.05978 37.5886 5.05811 37.6763C5.05619 37.7763 5.04311 37.7891 5.05615 37.7603C5.02278 37.8334 4.9754 37.8941 4.79639 37.9439C4.636 37.9885 4.40436 38.013 4.06592 38.0132L3.69092 38.0054H3.68994C3.38609 37.9943 3.16499 37.989 2.98486 37.9732C2.80208 37.9571 2.72193 37.9339 2.68701 37.9175C2.67767 37.9131 2.68125 37.9185 2.67432 37.9029C2.65638 37.8626 2.63071 37.768 2.62061 37.5611C2.6126 37.397 2.63912 37.1705 2.69775 36.8804C2.7555 36.5948 2.83722 36.2792 2.92627 35.939C3.09793 35.2834 3.30367 34.5148 3.32275 33.8668C3.33999 33.2799 3.37981 29.3069 3.41553 25.4918C3.43342 23.5812 3.45103 21.7069 3.46338 20.3101C3.46955 19.6119 3.47451 19.0329 3.47803 18.6285C3.47978 18.4264 3.481 18.2677 3.48193 18.1597C3.4824 18.106 3.48267 18.0645 3.48291 18.0367V17.9937L3.48682 17.5533L3.05029 17.4937L3.0249 17.4898C3.00036 17.4849 2.96132 17.4764 2.91162 17.4625C2.81113 17.4343 2.67145 17.3849 2.52002 17.3052C2.25659 17.1667 1.96802 16.9405 1.77783 16.564L1.70264 16.3941C1.598 16.1139 1.56955 15.9106 1.56689 15.773L5.93506 16.3707Z" fill="white" stroke="white"/>
<path d="M39.873 0.839966C39.8707 0.971943 39.8652 1.14365 39.8652 1.31653C39.8652 1.65435 39.8995 5.89955 39.9336 10.0548C39.9506 12.1336 39.9677 14.1915 39.9805 15.7296C39.9869 16.4987 39.9924 17.1382 39.9961 17.5851C39.998 17.8084 39.999 17.9842 40 18.1036C40.0001 18.1145 39.9999 18.1249 40 18.1349L39.4434 18.9855C39.2514 18.8931 39.0096 18.7764 38.7646 18.6564C38.4918 18.5227 38.2173 18.3867 38.0039 18.2765C37.9143 18.2302 37.8381 18.1892 37.7783 18.1564C37.7715 18.1206 37.7618 18.0758 37.7539 18.0197C37.7228 17.7971 37.6924 17.4476 37.6699 16.9347C37.6363 16.167 37.6214 15.0525 37.6455 13.4845L37.6826 11.7618C37.7916 7.82914 37.8981 5.56075 38.2891 3.72473L38.3711 3.36243C38.8112 1.53597 39.4998 0.919227 39.873 0.723755C39.873 0.758852 39.8738 0.797763 39.873 0.839966ZM6.00488 15.1144C6.00488 15.2445 5.99946 15.3699 5.99609 15.4816C5.86813 15.4894 5.71978 15.4986 5.56055 15.507C5.06259 15.5332 4.47424 15.5574 4.07129 15.5499L3.71484 15.5363C3.30972 15.5149 2.77849 15.472 2.2998 15.422C2.0106 15.3918 1.74845 15.3584 1.55078 15.3282C1.55081 15.2389 1.55122 15.1416 1.55176 15.045C1.55195 15.0109 1.55153 14.9769 1.55176 14.9435L6.00195 14.9054C6.00254 14.9716 6.00488 15.0419 6.00488 15.1144Z" fill="white" stroke="white"/>
<path d="M40.2437 37.9701C40.2432 37.9712 40.2421 37.972 40.2417 37.973C40.2294 37.9769 40.2062 37.981 40.1675 37.9837L40.1987 37.9622C40.2194 37.9463 40.2384 37.9288 40.2573 37.9115C40.2528 37.9375 40.2485 37.9569 40.2437 37.9701ZM4.34619 37.0423C4.34169 37.1117 4.33463 37.167 4.32666 37.2083L4.31299 37.2621V37.263C4.29634 37.2984 4.27632 37.3153 4.24756 37.3294C4.229 37.3385 4.20682 37.3463 4.18213 37.3519L4.10107 37.3626C4.04024 37.3657 3.98599 37.3665 3.93506 37.3665C3.9426 37.3585 3.95005 37.3497 3.9585 37.3412C4.02284 37.2759 4.09608 37.2119 4.17432 37.1449C4.2221 37.1039 4.28815 37.0452 4.34717 36.9886C4.34638 37.007 4.34732 37.0249 4.34619 37.0423ZM39.9067 19.348C39.86 19.5666 39.7902 19.7583 39.7163 19.8841C39.6935 19.923 39.6752 19.9473 39.6626 19.9622C39.4563 19.9699 39.3489 19.9421 39.2476 19.888C39.1061 19.8125 38.9416 19.6711 38.6353 19.3705H38.6343C38.6266 19.3629 38.6195 19.3546 38.6118 19.347C38.63 19.354 38.6475 19.363 38.6655 19.3695C38.8534 19.4374 39.1301 19.5185 39.3989 19.4652L39.3999 19.4662L39.4019 19.4652H39.4048L39.4038 19.4642C39.6246 19.4201 39.7998 19.3108 39.9341 19.1956C39.9265 19.2453 39.9178 19.2964 39.9067 19.348ZM1.61572 16.0951C1.7671 16.1005 1.94635 16.1122 2.13428 16.1351C2.2538 16.1497 2.37305 16.1682 2.48682 16.1878C2.34744 16.2405 2.20301 16.2849 2.06689 16.3119C1.90629 16.3437 1.78954 16.3459 1.71729 16.3372C1.69088 16.2978 1.65892 16.232 1.62939 16.1419C1.62434 16.1265 1.62029 16.1107 1.61572 16.0951Z" fill="white" stroke="white"/>
<path d="M33.5938 14.6188C33.6908 14.8598 33.825 15.2169 33.9697 15.6735C34.2594 16.5873 34.5903 17.8964 34.7529 19.4694C35.0677 22.5152 34.7503 26.5396 32.2852 30.613L32.04 31.0075C26.9375 38.993 16.2786 38.2439 11.2988 31.8415L11.0664 31.5319C8.32252 27.7648 7.74849 23.6856 7.86621 20.529C7.92508 18.9514 8.15648 17.6103 8.37305 16.6657C8.48125 16.1937 8.58561 15.8214 8.66211 15.569C8.66871 15.5473 8.67547 15.5265 8.68164 15.5065L33.5684 14.5593C33.5762 14.5784 33.5853 14.598 33.5938 14.6188Z" fill="white" stroke="white"/>
<path d="M20.9121 5.14389C28.9021 5.07762 34.403 12.1832 34.5225 19.2884L34.5244 19.6263V19.6273C34.496 23.7299 33.2995 27.708 31.0889 30.6478C28.8867 33.5762 25.6778 35.4798 21.5625 35.4798C13.8339 35.4798 8.30073 28.1457 8.24121 19.9613L8.24316 19.5716C8.3015 15.4388 9.52414 11.8444 11.6904 9.28452C13.7821 6.8129 16.778 5.27438 20.5459 5.1517L20.9121 5.14389Z" fill="white" stroke="white"/>
<path d="M26.605 11.0809L29.4526 14.867L29.6401 15.6092C29.3158 14.971 28.839 14.1524 28.1831 13.3319C26.8209 11.6278 24.6619 9.8737 21.521 9.74692L21.2144 9.74008C17.7474 9.7198 15.4471 11.543 14.022 13.368L14.5737 12.3914L17.8403 10.0204L21.8149 9.38168L26.605 11.0809Z" fill="white" stroke="white"/>
<mask id="path-8-inside-1_575_177" fill="white">
<path d="M21.1501 31.3627C15.6952 31.3627 11.501 26.7414 11.1296 20.277C10.9524 17.1949 11.8894 14.2452 13.7702 11.9774C15.6816 9.66287 18.3665 8.34974 21.1501 8.38481C24.0769 8.41598 26.5914 9.62391 28.4279 11.8761C30.3018 14.1751 31.2763 17.339 31.1025 20.5498C30.772 26.6829 26.6902 31.2263 21.3954 31.3627C21.3103 31.3588 21.2285 31.3627 21.1501 31.3627ZM21.0581 9.35505C18.547 9.35505 16.1177 10.5513 14.3869 12.6437C12.6731 14.7167 11.8179 17.4053 11.978 20.2108C12.3221 26.2309 16.2642 30.5054 21.3716 30.3807C26.2132 30.2599 29.9441 26.0984 30.2473 20.4835C30.404 17.5806 29.4875 14.6076 27.8009 12.5307C26.128 10.4772 23.8248 9.37842 21.1399 9.35115C21.1126 9.35505 21.0854 9.35505 21.0581 9.35505Z"/>
</mask>
<path d="M21.1501 31.3627C15.6952 31.3627 11.501 26.7414 11.1296 20.277C10.9524 17.1949 11.8894 14.2452 13.7702 11.9774C15.6816 9.66287 18.3665 8.34974 21.1501 8.38481C24.0769 8.41598 26.5914 9.62391 28.4279 11.8761C30.3018 14.1751 31.2763 17.339 31.1025 20.5498C30.772 26.6829 26.6902 31.2263 21.3954 31.3627C21.3103 31.3588 21.2285 31.3627 21.1501 31.3627ZM21.0581 9.35505C18.547 9.35505 16.1177 10.5513 14.3869 12.6437C12.6731 14.7167 11.8179 17.4053 11.978 20.2108C12.3221 26.2309 16.2642 30.5054 21.3716 30.3807C26.2132 30.2599 29.9441 26.0984 30.2473 20.4835C30.404 17.5806 29.4875 14.6076 27.8009 12.5307C26.128 10.4772 23.8248 9.37842 21.1399 9.35115C21.1126 9.35505 21.0854 9.35505 21.0581 9.35505Z" fill="white"/>
<path d="M11.1296 20.277L12.128 20.2197L12.128 20.2196L11.1296 20.277ZM13.7702 11.9774L14.5399 12.6158L14.5412 12.6142L13.7702 11.9774ZM21.1501 8.38481L21.1375 9.38473L21.1395 9.38475L21.1501 8.38481ZM28.4279 11.8761L29.203 11.2443L29.2029 11.2441L28.4279 11.8761ZM31.1025 20.5498L30.104 20.4957L30.1039 20.496L31.1025 20.5498ZM21.3954 31.3627L21.3497 32.3616L21.3855 32.3632L21.4212 32.3623L21.3954 31.3627ZM14.3869 12.6437L13.6163 12.0063L13.6162 12.0065L14.3869 12.6437ZM11.978 20.2108L10.9796 20.2678L10.9796 20.2678L11.978 20.2108ZM21.3716 30.3807L21.396 31.3804L21.3965 31.3804L21.3716 30.3807ZM30.2473 20.4835L31.2458 20.5375L31.2458 20.5374L30.2473 20.4835ZM27.8009 12.5307L28.5772 11.9003L28.5762 11.8991L27.8009 12.5307ZM21.1399 9.35115L21.1501 8.3512L21.0738 8.35043L20.9984 8.36121L21.1399 9.35115ZM21.1501 30.3627C16.3631 30.3627 12.4775 26.3045 12.128 20.2197L10.1313 20.3344C10.5245 27.1783 15.0274 32.3627 21.1501 32.3627V30.3627ZM12.128 20.2196C11.9645 17.3761 12.8292 14.6785 14.5399 12.6158L13.0004 11.339C10.9496 13.8119 9.94037 17.0136 10.1313 20.3344L12.128 20.2196ZM14.5412 12.6142C16.2787 10.5103 18.6849 9.35383 21.1375 9.38473L21.1627 7.38489C18.048 7.34565 15.0845 8.81544 12.9991 11.3406L14.5412 12.6142ZM21.1395 9.38475C23.7713 9.41278 26.0051 10.4873 27.6529 12.5081L29.2029 11.2441C27.1777 8.76051 24.3825 7.41918 21.1608 7.38487L21.1395 9.38475ZM27.6527 12.5079C29.3554 14.5968 30.2655 17.5103 30.104 20.4957L32.101 20.6038C32.287 17.1678 31.2482 13.7533 29.203 11.2443L27.6527 12.5079ZM30.1039 20.496C29.7947 26.2356 26.0248 30.2431 21.3697 30.363L21.4212 32.3623C27.3556 32.2095 31.7494 27.1302 32.1011 20.6036L30.1039 20.496ZM21.4411 30.3637C21.3296 30.3586 21.1621 30.3627 21.1501 30.3627V32.3627C21.2949 32.3627 21.2909 32.3589 21.3497 32.3616L21.4411 30.3637ZM21.0581 8.35505C18.2229 8.35505 15.5199 9.7051 13.6163 12.0063L15.1574 13.2811C16.7156 11.3975 18.8712 10.355 21.0581 10.355V8.35505ZM13.6162 12.0065C11.7337 14.2835 10.8058 17.2231 10.9796 20.2678L12.9764 20.1538C12.8299 17.5874 13.6124 15.1499 15.1576 13.2809L13.6162 12.0065ZM10.9796 20.2678C11.3457 26.6712 15.606 31.5218 21.396 31.3804L21.3472 29.381C16.9224 29.489 13.2986 25.7906 12.9764 20.1537L10.9796 20.2678ZM21.3965 31.3804C26.88 31.2436 30.9215 26.5439 31.2458 20.5375L29.2488 20.4296C28.9667 25.653 25.5464 29.2763 21.3467 29.381L21.3965 31.3804ZM31.2458 20.5374C31.4147 17.4093 30.4339 14.1866 28.5772 11.9003L27.0247 13.1611C28.5411 15.0285 29.3933 17.752 29.2488 20.4296L31.2458 20.5374ZM28.5762 11.8991C26.7125 9.61146 24.127 8.38144 21.1501 8.3512L21.1297 10.3511C23.5225 10.3754 25.5435 11.343 27.0257 13.1623L28.5762 11.8991ZM20.9984 8.36121C21.0303 8.35665 21.054 8.35553 21.0633 8.3552C21.0681 8.35502 21.0708 8.35501 21.0697 8.35502C21.068 8.35504 21.0657 8.35505 21.0581 8.35505V10.355C21.0739 10.355 21.1722 10.3567 21.2814 10.3411L20.9984 8.36121Z" fill="white" mask="url(#path-8-inside-1_575_177)"/>
</svg>
