<svg width="45" height="39" viewBox="0 0 45 39" fill="none" xmlns="http://www.w3.org/2000/svg">
<path d="M40.9091 31.5714V33.4286H4.09091V31.5714L8.18182 27.8571V16.7143C8.18182 10.9571 12.3341 5.88714 18.4091 4.25286C18.4091 4.06714 18.4091 3.9 18.4091 3.71429C18.4091 2.7292 18.8401 1.78445 19.6073 1.08789C20.3745 0.391325 21.415 0 22.5 0C23.585 0 24.6255 0.391325 25.3927 1.08789C26.1599 1.78445 26.5909 2.7292 26.5909 3.71429V4.25286C32.6659 5.88714 36.8182 10.9571 36.8182 16.7143V27.8571L40.9091 31.5714ZM26.5909 35.2857C26.5909 36.2708 26.1599 37.2155 25.3927 37.9121C24.6255 38.6087 23.585 39 22.5 39C21.415 39 20.3745 38.6087 19.6073 37.9121C18.8401 37.2155 18.4091 36.2708 18.4091 35.2857M38.3523 2.21L35.4477 4.84714C38.9455 7.98571 40.9091 12.2571 40.9091 16.7143H45C45 11.2729 42.6273 6.03571 38.3523 2.21ZM0 16.7143H4.09091C4.09091 12.2571 6.05455 7.98571 9.55227 4.84714L6.64773 2.21C2.37273 6.03571 0 11.2729 0 16.7143Z" fill="white"/>
</svg>
