<svg width="45" height="41" viewBox="0 0 45 41" fill="none" xmlns="http://www.w3.org/2000/svg">
<g clip-path="url(#clip0_963_1334)">
<g filter="url(#filter0_d_963_1334)">
<mask id="path-1-inside-1_963_1334" fill="white">
<path d="M39.375 32.4583V34.1666H5.625V32.4583L9.375 29.0416V18.7916C9.375 13.4958 13.1812 8.83204 18.75 7.32871V6.83329C18.75 5.92714 19.1451 5.05809 19.8483 4.41734C20.5516 3.7766 21.5054 3.41663 22.5 3.41663C23.4946 3.41663 24.4484 3.7766 25.1516 4.41734C25.8549 5.05809 26.25 5.92714 26.25 6.83329V7.32871C31.8187 8.83204 35.625 13.4958 35.625 18.7916V29.0416L39.375 32.4583ZM26.25 35.875C26.25 36.7811 25.8549 37.6502 25.1516 38.2909C24.4484 38.9317 23.4946 39.2916 22.5 39.2916C21.5054 39.2916 20.5516 38.9317 19.8483 38.2909C19.1451 37.6502 18.75 36.7811 18.75 35.875M37.0312 5.44954L34.3687 7.87538C35.9547 9.30244 37.2139 11.0022 38.0733 12.8761C38.9327 14.75 39.3751 16.7607 39.375 18.7916H43.125C43.125 13.7862 40.95 8.96871 37.0312 5.44954ZM1.875 18.7916H5.625C5.625 14.6916 7.425 10.7625 10.6313 7.87538L7.96875 5.44954C6.03353 7.19472 4.49826 9.27291 3.45214 11.5633C2.40603 13.8538 1.86993 16.3108 1.875 18.7916Z"/>
</mask>
<path d="M39.375 32.4583V34.1666H5.625V32.4583L9.375 29.0416V18.7916C9.375 13.4958 13.1812 8.83204 18.75 7.32871V6.83329C18.75 5.92714 19.1451 5.05809 19.8483 4.41734C20.5516 3.7766 21.5054 3.41663 22.5 3.41663C23.4946 3.41663 24.4484 3.7766 25.1516 4.41734C25.8549 5.05809 26.25 5.92714 26.25 6.83329V7.32871C31.8187 8.83204 35.625 13.4958 35.625 18.7916V29.0416L39.375 32.4583ZM26.25 35.875C26.25 36.7811 25.8549 37.6502 25.1516 38.2909C24.4484 38.9317 23.4946 39.2916 22.5 39.2916C21.5054 39.2916 20.5516 38.9317 19.8483 38.2909C19.1451 37.6502 18.75 36.7811 18.75 35.875M37.0312 5.44954L34.3687 7.87538C35.9547 9.30244 37.2139 11.0022 38.0733 12.8761C38.9327 14.75 39.3751 16.7607 39.375 18.7916H43.125C43.125 13.7862 40.95 8.96871 37.0312 5.44954ZM1.875 18.7916H5.625C5.625 14.6916 7.425 10.7625 10.6313 7.87538L7.96875 5.44954C6.03353 7.19472 4.49826 9.27291 3.45214 11.5633C2.40603 13.8538 1.86993 16.3108 1.875 18.7916Z" fill="white"/>
<path d="M39.375 32.4583H40.375V32.0166L40.0485 31.7191L39.375 32.4583ZM39.375 34.1666V35.1666H40.375V34.1666H39.375ZM5.625 34.1666H4.625V35.1666H5.625V34.1666ZM5.625 32.4583L4.95151 31.7191L4.625 32.0166V32.4583H5.625ZM9.375 29.0416L10.0485 29.7808L10.375 29.4833V29.0416H9.375ZM18.75 7.32871L19.0106 8.29415L19.75 8.09455V7.32871H18.75ZM22.5 3.41663V2.41663V3.41663ZM26.25 7.32871H25.25V8.09455L25.9894 8.29415L26.25 7.32871ZM35.625 29.0416H34.625V29.4833L34.9515 29.7808L35.625 29.0416ZM37.0312 5.44954L37.6994 4.70552L37.0264 4.10114L36.3578 4.71035L37.0312 5.44954ZM34.3687 7.87538L33.6953 7.13618L32.8789 7.88001L33.6999 8.61875L34.3687 7.87538ZM39.375 18.7916L38.375 18.7916L38.3749 19.7916H39.375V18.7916ZM43.125 18.7916V19.7916H44.125V18.7916H43.125ZM1.875 18.7916L0.875002 18.7937L0.877042 19.7916H1.875V18.7916ZM5.625 18.7916V19.7916H6.625V18.7916H5.625ZM10.6313 7.87538L11.3004 8.6185L12.1208 7.87974L11.3047 7.13618L10.6313 7.87538ZM7.96875 5.44954L8.64224 4.71035L7.9722 4.09987L7.29905 4.70691L7.96875 5.44954ZM38.375 32.4583V34.1666H40.375V32.4583H38.375ZM39.375 33.1666H5.625V35.1666H39.375V33.1666ZM6.625 34.1666V32.4583H4.625V34.1666H6.625ZM6.29849 33.1975L10.0485 29.7808L8.70151 28.3024L4.95151 31.7191L6.29849 33.1975ZM10.375 29.0416V18.7916H8.375V29.0416H10.375ZM10.375 18.7916C10.375 13.9998 13.8258 9.69385 19.0106 8.29415L18.4894 6.36327C12.5367 7.97024 8.375 12.9918 8.375 18.7916H10.375ZM19.75 7.32871V6.83329H17.75V7.32871H19.75ZM19.75 6.83329C19.75 6.22398 20.0148 5.61848 20.5218 5.15654L19.1749 3.67815C18.2753 4.4977 17.75 5.63029 17.75 6.83329H19.75ZM20.5218 5.15654C21.032 4.69177 21.7422 4.41663 22.5 4.41663V2.41663C21.2687 2.41663 20.0713 2.86142 19.1749 3.67815L20.5218 5.15654ZM22.5 4.41663C23.2578 4.41663 23.968 4.69177 24.4782 5.15654L25.8251 3.67815C24.9287 2.86142 23.7313 2.41663 22.5 2.41663V4.41663ZM24.4782 5.15654C24.9852 5.61848 25.25 6.22398 25.25 6.83329H27.25C27.25 5.63029 26.7247 4.4977 25.8251 3.67815L24.4782 5.15654ZM25.25 6.83329V7.32871H27.25V6.83329H25.25ZM25.9894 8.29415C31.1742 9.69385 34.625 13.9998 34.625 18.7916H36.625C36.625 12.9918 32.4633 7.97024 26.5106 6.36327L25.9894 8.29415ZM34.625 18.7916V29.0416H36.625V18.7916H34.625ZM34.9515 29.7808L38.7015 33.1975L40.0485 31.7191L36.2985 28.3024L34.9515 29.7808ZM25.25 35.875C25.25 36.4843 24.9852 37.0898 24.4782 37.5517L25.8251 39.0301C26.7247 38.2105 27.25 37.078 27.25 35.875H25.25ZM24.4782 37.5517C23.968 38.0165 23.2578 38.2916 22.5 38.2916V40.2916C23.7313 40.2916 24.9287 39.8468 25.8251 39.0301L24.4782 37.5517ZM22.5 38.2916C21.7422 38.2916 21.032 38.0165 20.5218 37.5517L19.1749 39.0301C20.0713 39.8468 21.2687 40.2916 22.5 40.2916V38.2916ZM20.5218 37.5517C20.0148 37.0898 19.75 36.4843 19.75 35.875H17.75C17.75 37.078 18.2753 38.2105 19.1749 39.0301L20.5218 37.5517ZM36.3578 4.71035L33.6953 7.13618L35.0422 8.61457L37.7047 6.18874L36.3578 4.71035ZM33.6999 8.61875C35.188 9.95776 36.3639 11.5475 37.1644 13.293L38.9823 12.4593C38.064 10.4569 36.7215 8.64711 35.0376 7.132L33.6999 8.61875ZM37.1644 13.293C37.9647 15.0381 38.3751 16.9068 38.375 18.7916L40.375 18.7917C40.3752 16.6147 39.9007 14.4619 38.9823 12.4593L37.1644 13.293ZM39.375 19.7916H43.125V17.7916H39.375V19.7916ZM44.125 18.7916C44.125 13.4911 41.8209 8.40673 37.6994 4.70552L36.3631 6.19356C40.0791 9.53069 42.125 14.0813 42.125 18.7916H44.125ZM1.875 19.7916H5.625V17.7916H1.875V19.7916ZM6.625 18.7916C6.625 14.9909 8.29266 11.3268 11.3004 8.6185L9.9621 7.13225C6.55734 10.1981 4.625 14.3924 4.625 18.7916H6.625ZM11.3047 7.13618L8.64224 4.71035L7.29526 6.18874L9.95776 8.61457L11.3047 7.13618ZM7.29905 4.70691C5.26596 6.54035 3.64741 8.72879 2.54253 11.1479L4.36176 11.9788C5.3491 9.81703 6.80109 7.8491 8.63845 6.19217L7.29905 4.70691ZM2.54253 11.1479C1.43749 13.5673 0.869634 16.1666 0.875002 18.7937L2.875 18.7896C2.87023 16.455 3.37456 14.1402 4.36176 11.9788L2.54253 11.1479Z" fill="black" mask="url(#path-1-inside-1_963_1334)"/>
</g>
</g>
<defs>
<filter id="filter0_d_963_1334" x="-2.12504" y="3.41663" width="49.25" height="43.875" filterUnits="userSpaceOnUse" color-interpolation-filters="sRGB">
<feFlood flood-opacity="0" result="BackgroundImageFix"/>
<feColorMatrix in="SourceAlpha" type="matrix" values="0 0 0 0 0 0 0 0 0 0 0 0 0 0 0 0 0 0 127 0" result="hardAlpha"/>
<feOffset dy="4"/>
<feGaussianBlur stdDeviation="2"/>
<feComposite in2="hardAlpha" operator="out"/>
<feColorMatrix type="matrix" values="0 0 0 0 0 0 0 0 0 0 0 0 0 0 0 0 0 0 0.25 0"/>
<feBlend mode="normal" in2="BackgroundImageFix" result="effect1_dropShadow_963_1334"/>
<feBlend mode="normal" in="SourceGraphic" in2="effect1_dropShadow_963_1334" result="shape"/>
</filter>
<clipPath id="clip0_963_1334">
<rect width="45" height="41" fill="white"/>
</clipPath>
</defs>
</svg>
