<svg width="15" height="15" viewBox="0 0 15 15" fill="none" xmlns="http://www.w3.org/2000/svg">
<path d="M13.4375 0.375H1.5625C1.24756 0.375 0.94551 0.500111 0.722811 0.722811C0.500111 0.94551 0.375 1.24756 0.375 1.5625V13.4375C0.375 13.7524 0.500111 14.0545 0.722811 14.2772C0.94551 14.4999 1.24756 14.625 1.5625 14.625H13.4375C13.7524 14.625 14.0545 14.4999 14.2772 14.2772C14.4999 14.0545 14.625 13.7524 14.625 13.4375V1.5625C14.625 1.24756 14.4999 0.94551 14.2772 0.722811C14.0545 0.500111 13.7524 0.375 13.4375 0.375ZM11.6562 8.09375H8.09375V11.6562C8.09375 11.8137 8.03119 11.9647 7.91985 12.0761C7.8085 12.1874 7.65747 12.25 7.5 12.25C7.34253 12.25 7.1915 12.1874 7.08016 12.0761C6.96881 11.9647 6.90625 11.8137 6.90625 11.6562V8.09375H3.34375C3.18628 8.09375 3.03526 8.03119 2.92391 7.91985C2.81256 7.8085 2.75 7.65747 2.75 7.5C2.75 7.34253 2.81256 7.1915 2.92391 7.08016C3.03526 6.96881 3.18628 6.90625 3.34375 6.90625H6.90625V3.34375C6.90625 3.18628 6.96881 3.03526 7.08016 2.92391C7.1915 2.81256 7.34253 2.75 7.5 2.75C7.65747 2.75 7.8085 2.81256 7.91985 2.92391C8.03119 3.03526 8.09375 3.18628 8.09375 3.34375V6.90625H11.6562C11.8137 6.90625 11.9647 6.96881 12.0761 7.08016C12.1874 7.1915 12.25 7.34253 12.25 7.5C12.25 7.65747 12.1874 7.8085 12.0761 7.91985C11.9647 8.03119 11.8137 8.09375 11.6562 8.09375Z" fill="white"/>
</svg>
