<svg xmlns="http://www.w3.org/2000/svg" width="55" height="55" fill="none" viewBox="0 0 55 55"><path fill="#89ab92" d="M0 11C0 4.925 4.925 0 11 0h33c6.075 0 11 4.925 11 11v33c0 6.075-4.925 11-11 11H11C4.925 55 0 50.075 0 44z"/><path fill="#fed283" d="M10.565 1.793C8.56 4.703 7.359 7.413 7.036 9.62l2.572 4.206 3.075-3.595c.093-2.28-.59-5.23-2.118-8.44m40.192.315c-3.057 1.765-5.305 3.693-6.546 5.546l.51 4.908 4.324-1.927c1.063-2.017 1.712-4.973 1.712-8.527m-9.856 2.93c-1.09 2.26-1.805 4.388-2.165 6.265L40.71 17.5l2.125-3.68-.699-6.683h.004a30 30 0 0 0-1.24-2.098M2.928 8.679c-.014 2.51.257 4.737.738 6.586l4.445 4.743.335-4.233-3.504-5.733.003-.004a30 30 0 0 0-2.017-1.36m14.27 1.131a30 30 0 0 0-2.535 1.192l-4.216 4.938-.332 4.23 5.418-4.2c.72-1.708 1.299-3.788 1.665-6.16m19.037 2.323c-2.58 6.24-1.736 10.513.846 11.656l2.273-3.935-2.105-6.6q-.478-.557-1.014-1.12m15.687.024q-.733-.003-1.426.03l-5.923 2.638-2.124 3.683 6.697-1.467c1.385-1.232 2.802-2.86 4.152-4.844a32 32 0 0 0-1.376-.04m-24.287.936c-2.497 2.497-4.172 4.942-4.891 7.053l1.765 4.61 3.676-2.982c.505-2.224.37-5.248-.55-8.68M1.763 17.087c.352 6.742 2.952 10.238 5.774 10.161l.359-4.535-4.733-5.05a30 30 0 0 0-1.4-.576m15.385 1.221q-1.041.22-1.988.49L9.9 22.875l-.356 4.485c2.846.807 6.14-2.21 7.603-9.05m1.725.168c-.469 2.464-.607 4.701-.47 6.607l3.511 5.478 1.098-4.102-2.407-6.277h.003a30 30 0 0 0-1.735-1.706m28.725.96-6.505 1.42-2.25 3.894c2.222 1.955 6.493.649 10.756-4.9a30 30 0 0 0-2-.414M32.7 22.18q-1.436.311-2.705.715l-5.046 4.085-1.098 4.103 6.09-3.146c1.02-1.55 1.968-3.49 2.76-5.757m16.664 2.692c-2.777 2.184-4.731 4.411-5.697 6.422l1.206 4.784 4.004-2.521c.766-2.148.992-5.166.487-8.685m-13.25.924c-3.699 8.333-6.38 17.086-6.764 27.18h2.011c.382-9.753 2.962-18.2 6.586-26.365zm-19.913.741c-.878 6.698 1.044 10.604 3.834 11.038l1.178-4.39-3.74-5.828a30 30 0 0 0-1.272-.82m23.82 2.636c-.757 2.39-1.161 4.594-1.251 6.502l2.836 5.865 1.578-3.945-1.642-6.519h.007a30 30 0 0 0-1.527-1.903m-32.491.164c-.93 8.012-.873 15.881 1.31 23.64h2.088c-2.245-7.604-2.34-15.365-1.406-23.409zm23.576 1.192q-1.065.026-2.045.12l-5.911 3.059-1.165 4.34c2.652 1.314 6.439-1.054 9.12-7.519m22.206 3.968q-1.462.136-2.77.386l-5.495 3.46-1.578 3.939 6.419-2.397c1.197-1.418 2.369-3.231 3.424-5.388M36.414 36.86c-1.668 6.546-.225 10.655 2.494 11.417l1.689-4.22-3.018-6.233a29 29 0 0 0-1.165-.964m-16.728 2.75c-1.361 4.429-2.39 8.867-2.883 13.367h2.02c.485-4.267 1.471-8.511 2.783-12.78zm29.004 2.863-6.23 2.33-1.672 4.176c2.477 1.622 6.518-.28 9.95-6.382a29 29 0 0 0-2.048-.124m-10.393 7.912a14.4 14.4 0 0 0-.392 2.592h2.007c.048-.718.166-1.419.336-2.115z"/></svg>