<svg xmlns="http://www.w3.org/2000/svg" width="31" height="37" fill="none" viewBox="0 0 31 37"><path fill="#ce4242" d="M.458 3.778h30.084v2.944H.458z"/><path fill="#ce4242" d="M27.977 4.514H2.955v27.714c0 2.99 2.604 4.137 5.818 4.137h13.385c3.214 0 5.819-1.148 5.819-4.137zm-16.435-.736V.833h7.917v2.945"/><path fill="#9c3333" d="M27.375 19.236v15.18l-2.137 1.75H13.125z"/><path stroke="#000" stroke-linecap="round" stroke-linejoin="round" stroke-miterlimit="10" stroke-width=".5" d="M11.542 3.778V.833h7.917v2.945m7.916 6.625v22.82c0 .78-.334 1.53-.927 2.081-.594.552-1.4.863-2.24.863H6.793c-.84 0-1.645-.31-2.24-.863a2.84 2.84 0 0 1-.927-2.082v-22.82m15.834 2.393v19.691m-7.917-19.69v19.69M.458 3.778h30.084v2.944H.458z"/></svg>