<svg width="31" height="37" viewBox="0 0 31 37" fill="none" xmlns="http://www.w3.org/2000/svg">
<path d="M0.458496 3.77777H30.5418V6.72222H0.458496V3.77777Z" fill="#CE4242"/>
<path d="M27.9768 4.5139H2.95459V32.2285C2.95459 35.2171 5.55917 36.3654 8.77334 36.3654H22.158C25.3722 36.3654 27.9768 35.2171 27.9768 32.2285V4.5139ZM11.5418 3.77779V0.833344H19.4585V3.77779" fill="#CE4242"/>
<path d="M27.375 19.2361V34.4155L25.2375 36.1667H13.125L27.375 19.2361Z" fill="#9C3333"/>
<path d="M11.5418 3.77779V0.833344H19.4585V3.77779M27.3752 10.4028V33.2222C27.3752 34.0032 27.0415 34.7521 26.4477 35.3043C25.8538 35.8565 25.0483 36.1667 24.2085 36.1667H6.79183C5.95198 36.1667 5.14652 35.8565 4.55266 35.3043C3.95879 34.7521 3.62516 34.0032 3.62516 33.2222V10.4028M19.4585 12.7951V32.4861M11.5418 12.7951V32.4861M0.458496 3.77779H30.5418V6.72223H0.458496V3.77779Z" stroke="black" stroke-width="0.5" stroke-miterlimit="10" stroke-linecap="round" stroke-linejoin="round"/>
</svg>
