<svg width="36" height="40" viewBox="0 0 36 40" fill="none" xmlns="http://www.w3.org/2000/svg">
<path d="M6.2157 0.0996094H19.7421C21.2848 0.0998886 22.762 0.619896 23.8485 1.54102L33.9188 10.0762C35.0051 10.9966 35.6109 12.2416 35.6112 13.5352V35C35.6112 36.2937 35.0051 37.5383 33.9188 38.459C32.8321 39.3801 31.3553 39.9004 29.8124 39.9004H6.2157C4.67286 39.9004 3.19601 39.38 2.10925 38.459C1.02298 37.5383 0.415894 36.2937 0.415894 35V5C0.415894 3.70628 1.02298 2.46171 2.10925 1.54102C3.19601 0.619974 4.67286 0.0996094 6.2157 0.0996094ZM9.16492 22.4004C8.36103 22.4004 7.58718 22.6709 7.01453 23.1562C6.4415 23.6421 6.11511 24.3047 6.11511 25V32.5C6.11511 33.1953 6.4415 33.8579 7.01453 34.3438C7.58718 34.8291 8.36103 35.0996 9.16492 35.0996C9.96887 35.0996 10.7426 34.8292 11.3153 34.3438C11.8885 33.8579 12.2147 33.1954 12.2147 32.5V25C12.2147 24.3046 11.8885 23.6421 11.3153 23.1562C10.7426 22.6708 9.96887 22.4004 9.16492 22.4004ZM18.0135 17.4004C17.2097 17.4005 16.4358 17.6709 15.8632 18.1562C15.2902 18.642 14.9647 19.3048 14.9647 20V32.5C14.9647 33.1952 15.2902 33.858 15.8632 34.3438C16.4358 34.8291 17.2097 35.0995 18.0135 35.0996C18.8175 35.0996 19.5912 34.8291 20.1639 34.3438C20.7371 33.8579 21.0634 33.1954 21.0634 32.5V20C21.0634 19.3046 20.7371 18.6421 20.1639 18.1562C19.5912 17.6709 18.8175 17.4004 18.0135 17.4004ZM26.8632 12.4004C26.0592 12.4004 25.2855 12.6709 24.7128 13.1562C24.1396 13.6421 23.8134 14.3046 23.8134 15V32.5C23.8134 33.1954 24.1396 33.8579 24.7128 34.3438C25.2855 34.8291 26.0592 35.0996 26.8632 35.0996C27.667 35.0995 28.4409 34.8291 29.0135 34.3438C29.5865 33.858 29.912 33.1952 29.912 32.5V15C29.912 14.3048 29.5865 13.642 29.0135 13.1562C28.4409 12.6709 27.667 12.4005 26.8632 12.4004Z" fill="#60836A" stroke="black" stroke-width="0.2"/>
</svg>
