<svg width="46" height="45" viewBox="0 0 46 45" fill="none" xmlns="http://www.w3.org/2000/svg">
<path d="M23.3031 8.90158C23.1723 8.77641 22.9982 8.70654 22.8171 8.70654C22.636 8.70654 22.4619 8.77641 22.3311 8.90158L6.15039 24.3589C6.08167 24.4246 6.027 24.5036 5.98969 24.5911C5.95238 24.6786 5.93319 24.7727 5.9333 24.8678L5.93066 39.375C5.93066 40.1209 6.22698 40.8363 6.75443 41.3638C7.28187 41.8912 7.99724 42.1875 8.74316 42.1875H17.1895C17.5624 42.1875 17.9201 42.0394 18.1838 41.7756C18.4475 41.5119 18.5957 41.1542 18.5957 40.7813V28.8281C18.5957 28.6417 18.6698 28.4628 18.8016 28.331C18.9335 28.1991 19.1123 28.125 19.2988 28.125H26.3301C26.5166 28.125 26.6954 28.1991 26.8273 28.331C26.9591 28.4628 27.0332 28.6417 27.0332 28.8281V40.7813C27.0332 41.1542 27.1814 41.5119 27.4451 41.7756C27.7088 42.0394 28.0665 42.1875 28.4395 42.1875H36.8822C37.6282 42.1875 38.3435 41.8912 38.871 41.3638C39.3984 40.8363 39.6947 40.1209 39.6947 39.375V24.8678C39.6948 24.7727 39.6757 24.6786 39.6383 24.5911C39.601 24.5036 39.5464 24.4246 39.4776 24.3589L23.3031 8.90158Z" fill="white"/>
<path d="M43.4609 21.4585L36.8867 15.169V5.625C36.8867 5.25204 36.7385 4.89435 36.4748 4.63063C36.211 4.36691 35.8534 4.21875 35.4804 4.21875H31.2617C30.8887 4.21875 30.531 4.36691 30.2673 4.63063C30.0036 4.89435 29.8554 5.25204 29.8554 5.625V8.4375L24.7648 3.57012C24.2884 3.08848 23.58 2.8125 22.8145 2.8125C22.0516 2.8125 21.345 3.08848 20.8686 3.571L2.17425 21.4567C1.62757 21.9841 1.55902 22.8516 2.05648 23.4229C2.1814 23.5671 2.33435 23.6843 2.50604 23.7675C2.67772 23.8507 2.86454 23.8982 3.05513 23.9069C3.24571 23.9156 3.43608 23.8854 3.61464 23.8182C3.7932 23.751 3.95622 23.6482 4.09378 23.516L22.3311 6.08906C22.4619 5.96389 22.636 5.89403 22.8171 5.89403C22.9982 5.89403 23.1723 5.96389 23.3032 6.08906L41.5422 23.516C41.8109 23.7737 42.1708 23.9143 42.5429 23.907C42.9151 23.8998 43.2692 23.7453 43.5277 23.4773C44.0673 22.9184 44.0225 21.9955 43.4609 21.4585Z" fill="white"/>
</svg>
