<svg width="56" height="55" viewBox="0 0 56 55" fill="none" xmlns="http://www.w3.org/2000/svg">
<path d="M0 11C0 4.92487 4.92487 0 11 0H44C50.0751 0 55 4.92487 55 11V44C55 50.0751 50.0751 55 44 55H11C4.92487 55 0 50.0751 0 44V11Z" fill="#89AB92"/>
<path d="M12.5646 3.79267C10.561 6.70348 9.35852 9.41319 9.03647 11.6207L11.6079 15.827L14.6828 12.2316C14.776 9.95288 14.093 7.00265 12.5646 3.79224V3.79267ZM52.7572 4.10816C49.6999 5.87311 47.4518 7.80079 46.2111 9.65382L46.7213 14.5617L51.0452 12.6348C52.1076 10.6177 52.7573 7.66222 52.7573 4.10816H52.7572ZM42.9012 7.03863C41.8106 9.29836 41.0965 11.4257 40.736 13.3028L42.7099 19.4996L44.8347 15.8204L44.1365 9.13658H44.1397C43.7721 8.44994 43.3607 7.7502 42.9011 7.03863H42.9012ZM4.92758 10.6778C4.91415 13.1876 5.18464 15.4153 5.6661 17.2642L10.1107 22.0073L10.4464 17.7743L6.94174 12.0407L6.94496 12.0373C6.31869 11.5768 5.6473 11.1222 4.92758 10.6778ZM19.1979 11.8091C18.294 12.1855 17.448 12.584 16.6634 13.0009L12.4471 17.9391L12.1147 22.1687L17.5329 17.9691C18.2539 16.2607 18.8316 14.1811 19.1979 11.8091ZM38.2352 14.1322C35.6545 20.3724 36.4993 24.6445 39.081 25.7875L41.3537 21.8532L39.2489 15.2534C38.9295 14.8817 38.5927 14.5076 38.235 14.1321L38.2352 14.1322ZM53.9221 14.1557C53.4333 14.1526 52.9585 14.1647 52.4955 14.1857L46.5734 16.8242L44.4486 20.5066L51.1456 19.0398C52.531 17.8077 53.9483 16.1796 55.2981 14.1957C54.83 14.1725 54.37 14.1583 53.9218 14.1555L53.9221 14.1557ZM29.6346 15.0924C27.1381 17.5886 25.4632 20.0341 24.7437 22.1452L26.5093 26.7543L30.1853 23.7733C30.6896 21.5493 30.5544 18.5251 29.6346 15.0924ZM3.7627 19.0865C4.11504 25.8294 6.71486 29.3249 9.53662 29.248L9.89584 24.7126L5.16251 19.6638C4.71402 19.4657 4.24771 19.272 3.7627 19.0865ZM19.1477 20.3085C18.454 20.4539 17.7909 20.6195 17.1604 20.7986L11.8999 24.874L11.5441 29.3589C14.3899 30.1656 17.6844 27.1495 19.1474 20.3086L19.1477 20.3085ZM20.8729 20.4764C20.4045 22.9401 20.2659 25.1774 20.403 27.0828L23.9144 32.5613L25.0122 28.4591L22.6052 22.1817H22.6085C22.0765 21.6145 21.5001 21.0439 20.8731 20.4764H20.8729ZM49.5983 21.4365L43.0925 22.8564L40.8435 26.7504C43.0652 28.705 47.3359 27.3987 51.5992 21.8493C50.9103 21.6826 50.2435 21.5461 49.5983 21.4365ZM34.7002 24.179C33.7429 24.3852 32.8414 24.6258 31.9946 24.8941L26.949 28.9793L25.8511 33.0818L31.9408 29.9361C32.9606 28.3867 33.9091 26.446 34.7001 24.1791L34.7002 24.179ZM51.364 26.8713C48.5872 29.0545 46.6325 31.282 45.6674 33.2932L46.8727 38.0769L50.8774 35.5557C51.6429 33.4083 51.8695 30.3899 51.364 26.8713ZM38.1144 27.7946C34.4153 36.1276 31.7342 44.8811 31.35 54.9755H33.361C33.7432 45.2225 36.3229 36.7753 39.9472 28.6103L38.1143 27.7945L38.1144 27.7946ZM18.2011 28.5364C17.3231 35.2339 19.2446 39.1404 22.0346 39.574L23.213 35.1833L19.4733 29.3556C19.0683 29.0796 18.6447 28.8072 18.2009 28.5365L18.2011 28.5364ZM42.0219 31.1717C41.2642 33.5611 40.8599 35.7661 40.7696 37.6742L43.6062 43.5388L45.1839 39.5941L43.5425 33.075H43.549C43.0871 32.4468 42.5786 31.8117 42.0217 31.1718L42.0219 31.1717ZM9.52996 31.3363C8.59926 39.3482 8.65662 47.217 10.8392 54.9757H12.9275C10.6849 47.3733 10.5896 39.6123 11.5241 31.5679L9.53018 31.3363H9.52996ZM33.1058 32.528C32.3955 32.5452 31.7144 32.586 31.0614 32.6489L25.1497 35.7068L23.9849 40.0475C26.6371 41.3613 30.4235 38.9927 33.1056 32.528H33.1058ZM55.3119 36.4959C54.3373 36.5865 53.4144 36.7163 52.5425 36.8819L47.0473 40.3427L45.4695 44.2805L51.8879 41.8836C53.0846 40.4664 54.257 38.6529 55.3119 36.4959ZM38.4133 38.8591C36.7453 45.4052 38.1882 49.5143 40.9074 50.2759L42.596 46.0564L39.5781 39.8227C39.2097 39.5004 38.8206 39.1798 38.4133 38.8591ZM21.6854 41.6086C20.3239 46.0379 19.2942 50.476 18.8018 54.9757H20.8227C21.3068 50.7087 22.2933 46.4647 23.6054 42.1958L21.6853 41.6085L21.6854 41.6086ZM50.6893 44.4719L44.4588 46.8017L42.787 50.9777C45.2637 52.5996 49.3046 50.6978 52.737 44.5961C52.0286 44.5288 51.3459 44.4884 50.6893 44.472V44.4719ZM40.2962 52.3841C40.0949 53.2126 39.9541 54.0767 39.9035 54.9757H41.9109C41.9592 54.2575 42.0774 53.5571 42.2467 52.8609L40.2963 52.384L40.2962 52.3841Z" fill="#FED283"/>
</svg>
