<svg width="38" height="43" viewBox="0 0 38 43" fill="none" xmlns="http://www.w3.org/2000/svg">
<path d="M19 23.656C24.0582 23.656 28.6583 25.1195 32.0424 27.1818C33.7313 28.2109 35.1753 29.4255 36.2182 30.7456C37.2442 32.0424 38 33.5945 38 35.254C38 37.0359 37.1323 38.4403 35.8826 39.442C34.7003 40.3909 33.1402 41.0193 31.483 41.4579C28.1517 42.3372 23.7057 42.6346 19 42.6346C14.2943 42.6346 9.84833 42.3394 6.517 41.4579C4.85978 41.0193 3.29967 40.3909 2.11744 39.442C0.865555 38.4382 0 37.0359 0 35.254C0 33.5945 0.755778 32.0424 1.78178 30.7435C2.82467 29.4255 4.26656 28.213 5.95756 27.1797C9.34167 25.1216 13.9439 23.656 19 23.656ZM19 0.460022C21.7995 0.460022 24.4844 1.57087 26.4639 3.54818C28.4435 5.5255 29.5556 8.20731 29.5556 11.0037C29.5556 13.8 28.4435 16.4818 26.4639 18.4591C24.4844 20.4365 21.7995 21.5473 19 21.5473C16.2005 21.5473 13.5156 20.4365 11.5361 18.4591C9.55655 16.4818 8.44444 13.8 8.44444 11.0037C8.44444 8.20731 9.55655 5.5255 11.5361 3.54818C13.5156 1.57087 16.2005 0.460022 19 0.460022Z" fill="white"/>
</svg>
