<svg width="43" height="44" viewBox="0 0 43 44" fill="none" xmlns="http://www.w3.org/2000/svg">
<rect x="0.5" y="0.5" width="42" height="43" rx="9.5" fill="#C5EEF5" stroke="#716B6B"/>
<path d="M21.5 13.25C28.3298 13.25 32.3871 16.0389 34.7412 18.8135C35.9211 20.2042 36.6768 21.5957 37.1367 22.6387C37.3665 23.1598 37.5221 23.5935 37.6201 23.8955C37.6691 24.0464 37.7035 24.1646 37.7256 24.2441C37.7276 24.2516 37.7296 24.2589 37.7314 24.2656C37.7304 24.2674 37.7296 24.2697 37.7285 24.2715C37.691 24.3326 37.6338 24.4232 37.5566 24.5391C37.4018 24.7716 37.1658 25.1062 36.8467 25.5078C36.2083 26.3111 35.2355 27.384 33.8994 28.457C31.2284 30.602 27.1051 32.75 21.2939 32.75C15.4851 32.75 11.4669 30.5498 8.90039 28.3535C7.61602 27.2544 6.69458 26.155 6.09473 25.332C5.79494 24.9207 5.57527 24.5789 5.43164 24.3408C5.35994 24.222 5.30711 24.129 5.27246 24.0664C5.27047 24.0628 5.26847 24.0591 5.2666 24.0557C5.2688 24.0478 5.2719 24.0392 5.27441 24.0303C5.29649 23.9524 5.33105 23.837 5.37988 23.6895C5.47781 23.3935 5.63355 22.968 5.86328 22.457C6.32293 21.4347 7.07734 20.0706 8.25684 18.707C10.6103 15.9864 14.6681 13.25 21.5 13.25ZM13.5459 16.6914C9.34918 18.9031 7.66795 22.2239 7.03711 23.7754L6.98828 23.8945L7.05762 24.0029C8.32491 26.0065 12.7258 31.0762 21.2939 31.0762C30.0692 31.0761 34.466 26.0051 35.9326 24.0176L36.0156 23.9053L35.9629 23.7754C35.3358 22.2332 33.654 18.6842 29.4443 16.6875L28.9736 16.4639L29.0947 16.9707C29.3011 17.8409 29.5 18.6848 29.5 19.7393C29.4999 24.3963 25.8872 28.1846 21.5 28.1846C17.1128 28.1846 13.5001 24.3963 13.5 19.7393C13.5 18.6848 13.6989 17.8409 13.9053 16.9707L14.0332 16.4355L13.5459 16.6914ZM18.5332 15.3604C18.4836 15.3617 18.4116 15.3639 18.3232 15.3691C18.1468 15.3797 17.9005 15.4013 17.6211 15.4434C17.0684 15.5266 16.3574 15.696 15.7979 16.0498L15.75 16.0801L15.7197 16.127V16.1279L15.7188 16.1289C15.7182 16.1298 15.7177 16.1314 15.7168 16.1328C15.7148 16.136 15.7115 16.1408 15.708 16.1465C15.7011 16.1579 15.6918 16.1744 15.6797 16.1953C15.6553 16.2375 15.6206 16.2986 15.5801 16.377C15.499 16.5336 15.3921 16.7601 15.2852 17.042C15.0716 17.6048 14.8564 18.3966 14.8564 19.3047C14.8565 20.0987 15.0178 20.7781 15.1787 21.2588C15.2593 21.4994 15.3401 21.6914 15.4014 21.8242C15.432 21.8907 15.458 21.9427 15.4766 21.9785C15.4856 21.996 15.4928 22.0098 15.498 22.0195C15.5007 22.0244 15.5033 22.0285 15.5049 22.0312C15.5057 22.0327 15.5063 22.0343 15.5068 22.0352L15.5078 22.0361L15.7246 21.9131L15.5078 22.0371L15.5967 22.1924L15.7725 22.1582L18.041 21.7236L18.3584 21.6631L18.2197 21.3711L18.2168 21.3662C18.2145 21.3611 18.211 21.3524 18.2061 21.3408C18.1962 21.3176 18.182 21.2812 18.1641 21.2324C18.1282 21.1348 18.0796 20.9868 18.0303 20.792C17.9317 20.4024 17.8311 19.8251 17.8311 19.0869C17.8311 18.3728 18.0761 17.5382 18.3311 16.8662C18.4573 16.5336 18.583 16.2469 18.6777 16.0439C18.725 15.9426 18.7647 15.8623 18.792 15.8076L18.8311 15.7295C18.8317 15.7282 18.8326 15.7273 18.833 15.7266L18.834 15.7256L19.0273 15.3584H18.5908C18.5774 15.3586 18.5578 15.3597 18.5332 15.3604Z" fill="#6E949A" stroke="black" stroke-width="0.5"/>
</svg>
