<svg width="43" height="44" viewBox="0 0 43 44" fill="none" xmlns="http://www.w3.org/2000/svg">
<rect x="0.5" y="0.5" width="42" height="43" rx="9.5" fill="#C5EEF5" stroke="#716B6B"/>
<path d="M15.7501 16.0797L15.7976 16.0496C16.3573 15.6956 17.0686 15.5262 17.6214 15.443C17.901 15.4009 18.1472 15.3799 18.3237 15.3693C18.4121 15.3641 18.4833 15.3614 18.5328 15.3601C18.5576 15.3594 18.577 15.359 18.5905 15.3589L18.6062 15.3587L18.6105 15.3587L18.6118 15.3587L18.6122 15.3587H18.6124C18.6124 15.3587 18.6125 15.3587 18.6125 15.6087V15.3587H19.0269L15.7501 16.0797ZM15.7501 16.0797L15.72 16.1272L15.9313 16.2609C15.72 16.1272 15.7199 16.1273 15.7199 16.1274L15.7198 16.1275L15.7195 16.128L15.7187 16.1292L15.7163 16.1331L15.7081 16.1464C15.7012 16.1579 15.6915 16.1742 15.6793 16.1953C15.655 16.2374 15.6209 16.2986 15.5803 16.3769C15.4992 16.5336 15.392 16.7598 15.285 17.0417C15.0714 17.6046 14.8562 18.3962 14.8562 19.3043C14.8562 20.0986 15.0176 20.778 15.1786 21.2587C15.2592 21.4994 15.34 21.6913 15.4013 21.8242C15.432 21.8907 15.4578 21.9424 15.4764 21.9783C15.4857 21.9962 15.4931 22.0101 15.4984 22.0199L15.5048 22.0315L15.5067 22.0349L15.5073 22.036L15.5076 22.0364L15.5077 22.0366C15.5077 22.0367 15.5077 22.0367 15.725 21.913L15.5077 22.0367L15.5963 22.1923L15.7721 22.1586L18.0408 21.7238L18.3581 21.663L18.2199 21.3717L18.2198 21.3716L18.2197 21.3714L18.2197 21.3713L18.2196 21.3711L18.2196 21.371L18.2172 21.3659C18.215 21.3608 18.2113 21.3524 18.2064 21.3408C18.1966 21.3175 18.1819 21.2813 18.164 21.2324C18.1281 21.1347 18.0792 20.9868 18.0299 20.7919C17.9313 20.4023 17.8313 19.8251 17.8313 19.087C17.8313 18.3728 18.0756 17.5379 18.3306 16.8659C18.4569 16.5332 18.5832 16.2469 18.6779 16.0439C18.7252 15.9425 18.7645 15.8621 18.7919 15.8074C18.8055 15.7801 18.8162 15.7592 18.8233 15.7453L18.8313 15.7298L18.8332 15.7261L18.8336 15.7253L18.8337 15.7253L18.8337 15.7252L15.7501 16.0797ZM7.03716 23.7754L6.98873 23.8945L7.05747 24.0032C8.32476 26.0068 12.7256 31.0761 21.2938 31.0761C30.0691 31.0761 34.4658 26.0055 35.9324 24.018L36.0156 23.9052L35.9628 23.7754C35.3358 22.2332 33.6543 18.6838 29.4446 16.6872L28.974 16.464L29.0942 16.9707C29.3007 17.841 29.5 18.6847 29.5 19.7391C29.5 24.3962 25.8872 28.1848 21.5 28.1848C17.1128 28.1848 13.5 24.3962 13.5 19.7391C13.5 18.6847 13.6993 17.841 13.9058 16.9707L14.0327 16.4353L13.5459 16.6919C9.34923 18.9036 7.668 22.2239 7.03716 23.7754ZM5.26694 24.0558C5.26914 24.0479 5.27149 24.0395 5.27401 24.0306C5.2961 23.9527 5.33059 23.8371 5.37955 23.6891C5.47747 23.3931 5.63315 22.9681 5.86288 22.4571C6.32253 21.4347 7.0774 20.0707 8.25704 18.707C10.6105 15.9864 14.6681 13.25 21.5 13.25C28.3301 13.25 32.3873 16.0392 34.7414 18.8139C35.9213 20.2047 36.6765 21.5959 37.1364 22.6389C37.3662 23.1602 37.522 23.5938 37.62 23.8958C37.669 24.0468 37.7035 24.1648 37.7256 24.2443C37.7278 24.2519 37.7298 24.2592 37.7316 24.2661C37.7306 24.2677 37.7296 24.2694 37.7285 24.2711C37.6909 24.3324 37.6336 24.4232 37.5562 24.5394C37.4014 24.7719 37.1663 25.1059 36.8471 25.5075C36.2087 26.311 35.2354 27.384 33.8989 28.4572C31.2279 30.6023 27.105 32.75 21.2938 32.75C15.4849 32.75 11.4674 30.5498 8.90083 28.3535C7.61632 27.2543 6.6946 26.1554 6.0947 25.3324C5.79484 24.921 5.57565 24.5789 5.43199 24.3408C5.36017 24.2217 5.30726 24.1287 5.2726 24.0661C5.27066 24.0625 5.26877 24.0591 5.26694 24.0558Z" fill="#6E949A" stroke="black" stroke-width="0.5"/>
</svg>
