<svg width="21" height="16" viewBox="0 0 21 16" fill="none" xmlns="http://www.w3.org/2000/svg">
<g clip-path="url(#clip0_1879_1616)">
<path d="M3.27246 0.25H12.7275C13.1702 0.250035 13.5773 0.336829 13.9512 0.509766V0.510742C13.972 0.520468 13.9862 0.530414 13.9961 0.542969L14.0156 0.591797C14.0236 0.640042 14.0138 0.666834 13.9824 0.698242L13.4258 1.25488C13.3983 1.28232 13.3797 1.28985 13.3711 1.29199C13.3632 1.29394 13.3472 1.29508 13.3174 1.28516L13.3018 1.28125L13.1572 1.24805C13.013 1.2195 12.8697 1.20412 12.7275 1.2041H3.27246C2.70574 1.20417 2.21403 1.40902 1.81152 1.81152C1.40902 2.21403 1.20417 2.70574 1.2041 3.27246V12.7275C1.20417 13.2943 1.40902 13.786 1.81152 14.1885C2.21403 14.591 2.70574 14.7958 3.27246 14.7959H12.7275C13.2943 14.7958 13.786 14.591 14.1885 14.1885C14.591 13.786 14.7958 13.2943 14.7959 12.7275V11.2959C14.7959 11.2623 14.8043 11.2427 14.8242 11.2227L15.5518 10.4951C15.5801 10.4667 15.599 10.4599 15.6084 10.458C15.6181 10.4561 15.6397 10.4547 15.6797 10.4707C15.72 10.4868 15.7331 10.5026 15.7373 10.5088C15.7413 10.5146 15.75 10.5301 15.75 10.5684V12.7275C15.7499 13.5623 15.4567 14.2699 14.8633 14.8633C14.2699 15.4567 13.5623 15.7499 12.7275 15.75H3.27246C2.43768 15.7499 1.73015 15.4567 1.13672 14.8633C0.543292 14.2699 0.250062 13.5623 0.25 12.7275V3.27246C0.250062 2.43768 0.543292 1.73015 1.13672 1.13672C1.73015 0.543292 2.43768 0.250062 3.27246 0.25ZM17.8281 5.4541L10.4424 12.8408H7.52246V9.92188L14.9092 2.53516L17.8281 5.4541ZM8.11328 10.1689V11.1592H9.2041V12.25H10.1943L11.7627 10.6816L9.68164 8.60059L8.11328 10.1689ZM14.8984 3.48047C14.7486 3.48509 14.6281 3.5634 14.5391 3.65234L10.5615 7.62988C10.4726 7.71887 10.3943 7.83942 10.3896 7.98926C10.385 8.14322 10.4601 8.26771 10.5508 8.3584C10.6415 8.44907 10.766 8.5242 10.9199 8.51953C11.0697 8.51485 11.1903 8.4366 11.2793 8.34766L15.2559 4.37012C15.3449 4.28112 15.4241 4.16064 15.4287 4.01074C15.4334 3.85681 15.3582 3.73229 15.2676 3.6416C15.1769 3.55091 15.0524 3.4758 14.8984 3.48047ZM17.4541 0.34082C17.6916 0.34082 17.8861 0.421232 18.0508 0.585938L19.7773 2.31348C19.942 2.47818 20.0225 2.6717 20.0225 2.90918C20.0224 3.14662 19.942 3.3402 19.7773 3.50488L18.9082 4.37305L15.9893 1.4541L16.8584 0.585938C17.023 0.421335 17.2168 0.34092 17.4541 0.34082Z" fill="white" stroke="#DFDFDF" stroke-width="0.5"/>
</g>
<defs>
<clipPath id="clip0_1879_1616">
<rect width="20.3636" height="16" fill="white"/>
</clipPath>
</defs>
</svg>
