<svg width="43" height="44" viewBox="0 0 43 44" fill="none" xmlns="http://www.w3.org/2000/svg">
<rect x="0.5" y="0.5" width="42" height="43" rx="9.5" fill="#ADD8A7" stroke="#716B6B"/>
<path d="M10 26V28.4C10 29.8933 10 30.64 10.2907 31.2106C10.5463 31.7124 10.9543 32.1203 11.456 32.376C12.0253 32.6666 12.772 32.6666 14.2627 32.6666H34M10 26V12.6666M10 26L15.1373 21.72L15.1427 21.716C16.072 20.9413 16.5373 20.5533 17.0427 20.396C17.6388 20.2095 18.2815 20.2383 18.8587 20.4773C19.348 20.6813 19.776 21.1093 20.6347 21.968L20.6427 21.976C21.5147 22.848 21.9507 23.2853 22.448 23.4866C23.0366 23.7265 23.6915 23.7482 24.2947 23.548C24.8053 23.3773 25.272 22.9693 26.2053 22.1533L34 15.3333" stroke="#2E4934" stroke-width="2" stroke-linecap="round" stroke-linejoin="round"/>
</svg>
