<svg width="114" height="77" viewBox="0 0 114 77" fill="none" xmlns="http://www.w3.org/2000/svg">
<g filter="url(#filter0_d_635_651)">
<rect x="4" width="106" height="69" rx="5" fill="#D1D1D1" style="mix-blend-mode:darken" shape-rendering="crispEdges"/>
<rect x="4.25" y="0.25" width="105.5" height="68.5" rx="4.75" stroke="black" stroke-width="0.5" shape-rendering="crispEdges"/>
</g>
<path d="M62.0933 15.251C61.0211 14.1766 59.654 13.4447 58.1654 13.1479C56.6768 12.8512 55.1335 13.003 53.7313 13.5842C52.329 14.1654 51.1308 15.1498 50.2886 16.4126C49.4463 17.6754 48.9978 19.1598 49 20.6777C49 20.9429 49.1054 21.1973 49.2929 21.3848C49.4804 21.5724 49.7348 21.6777 50 21.6777C50.2652 21.6777 50.5196 21.5724 50.7071 21.3848C50.8947 21.1973 51 20.9429 51 20.6777C50.9974 19.5532 51.3286 18.4532 51.9517 17.5171C52.5748 16.581 53.4618 15.8509 54.5002 15.4193C55.5386 14.9878 56.6818 14.8741 57.7848 15.0929C58.8879 15.3116 59.9012 15.8529 60.6964 16.648C61.4915 17.4432 62.0328 18.4565 62.2515 19.5595C62.4702 20.6626 62.3566 21.8058 61.9251 22.8442C61.4935 23.8826 60.7634 24.7696 59.8273 25.3927C58.8912 26.0158 57.7912 26.347 56.6667 26.3444C56.4025 26.3478 56.1502 26.4543 55.9634 26.6411C55.7766 26.8279 55.6701 27.0802 55.6667 27.3444V30.011C55.6667 30.2763 55.772 30.5306 55.9596 30.7182C56.1471 30.9057 56.4015 31.011 56.6667 31.011C56.9319 31.011 57.1862 30.9057 57.3738 30.7182C57.5613 30.5306 57.6667 30.2763 57.6667 30.011V28.2777C59.0841 28.0878 60.4203 27.506 61.5248 26.5977C62.6294 25.6894 63.4584 24.4907 63.9185 23.1367C64.3786 21.7827 64.4516 20.3271 64.1291 18.9339C63.8066 17.5407 63.1016 16.2652 62.0933 15.251Z" fill="#515151"/>
<path d="M56.6667 36.3446C57.5871 36.3446 58.3333 35.5984 58.3333 34.6779C58.3333 33.7574 57.5871 33.0112 56.6667 33.0112C55.7462 33.0112 55 33.7574 55 34.6779C55 35.5984 55.7462 36.3446 56.6667 36.3446Z" fill="#515151"/>
<path d="M25.1002 50.0824V52H24.3289V48.7273H25.0661V49.2834H25.1045C25.1798 49.1001 25.2998 48.9545 25.4646 48.8466C25.6308 48.7386 25.836 48.6847 26.0803 48.6847C26.3062 48.6847 26.5029 48.733 26.6705 48.8295C26.8396 48.9261 26.9703 49.0661 27.0626 49.2493C27.1563 49.4325 27.2025 49.6548 27.2011 49.9162V52H26.4298V50.0355C26.4298 49.8168 26.373 49.6456 26.2593 49.522C26.1471 49.3984 25.9916 49.3366 25.7927 49.3366C25.6578 49.3366 25.5377 49.3665 25.4326 49.4261C25.3289 49.4844 25.2472 49.5689 25.1876 49.6797C25.1294 49.7905 25.1002 49.9247 25.1002 50.0824ZM29.4127 52.0639C29.0931 52.0639 28.8161 51.9936 28.5818 51.853C28.3474 51.7124 28.1656 51.5156 28.0363 51.2628C27.9085 51.0099 27.8445 50.7145 27.8445 50.3764C27.8445 50.0384 27.9085 49.7422 28.0363 49.4879C28.1656 49.2337 28.3474 49.0362 28.5818 48.8956C28.8161 48.755 29.0931 48.6847 29.4127 48.6847C29.7323 48.6847 30.0093 48.755 30.2437 48.8956C30.4781 49.0362 30.6592 49.2337 30.787 49.4879C30.9163 49.7422 30.9809 50.0384 30.9809 50.3764C30.9809 50.7145 30.9163 51.0099 30.787 51.2628C30.6592 51.5156 30.4781 51.7124 30.2437 51.853C30.0093 51.9936 29.7323 52.0639 29.4127 52.0639ZM29.417 51.446C29.5903 51.446 29.7352 51.3984 29.8517 51.3033C29.9681 51.2067 30.0548 51.0774 30.1116 50.9155C30.1698 50.7536 30.199 50.5732 30.199 50.3743C30.199 50.174 30.1698 49.9929 30.1116 49.831C30.0548 49.6676 29.9681 49.5376 29.8517 49.4411C29.7352 49.3445 29.5903 49.2962 29.417 49.2962C29.2394 49.2962 29.0917 49.3445 28.9738 49.4411C28.8573 49.5376 28.77 49.6676 28.7117 49.831C28.6549 49.9929 28.6265 50.174 28.6265 50.3743C28.6265 50.5732 28.6549 50.7536 28.7117 50.9155C28.77 51.0774 28.8573 51.2067 28.9738 51.3033C29.0917 51.3984 29.2394 51.446 29.417 51.446ZM35.7105 49.5923L35.0074 49.669C34.9875 49.598 34.9527 49.5312 34.903 49.4688C34.8547 49.4062 34.7893 49.3558 34.7069 49.3175C34.6246 49.2791 34.5237 49.2599 34.4044 49.2599C34.2439 49.2599 34.1089 49.2947 33.9996 49.3643C33.8916 49.4339 33.8383 49.5241 33.8398 49.6349C33.8383 49.7301 33.8731 49.8075 33.9442 49.8672C34.0166 49.9268 34.1359 49.9759 34.3021 50.0142L34.8604 50.1335C35.17 50.2003 35.4001 50.3061 35.5507 50.451C35.7027 50.5959 35.7794 50.7855 35.7808 51.0199C35.7794 51.2259 35.719 51.4077 35.5997 51.5653C35.4818 51.7216 35.3177 51.8437 35.1075 51.9318C34.8973 52.0199 34.6558 52.0639 34.3831 52.0639C33.9825 52.0639 33.6601 51.9801 33.4157 51.8125C33.1714 51.6435 33.0258 51.4084 32.979 51.1072L33.7311 51.0348C33.7652 51.1825 33.8376 51.294 33.9484 51.3693C34.0592 51.4446 34.2034 51.4822 34.3809 51.4822C34.5642 51.4822 34.7112 51.4446 34.822 51.3693C34.9342 51.294 34.9903 51.201 34.9903 51.0902C34.9903 50.9964 34.9541 50.919 34.8817 50.858C34.8106 50.7969 34.6998 50.75 34.5493 50.7173L33.991 50.6001C33.6771 50.5348 33.4449 50.4247 33.2943 50.2699C33.1437 50.1136 33.0692 49.9162 33.0706 49.6776C33.0692 49.4759 33.1238 49.3011 33.2346 49.1534C33.3469 49.0043 33.5024 48.8892 33.7013 48.8082C33.9015 48.7259 34.1324 48.6847 34.3937 48.6847C34.7773 48.6847 35.0791 48.7663 35.2993 48.9297C35.5209 49.093 35.6579 49.3139 35.7105 49.5923ZM37.8657 52.0639C37.5376 52.0639 37.2542 51.9957 37.0155 51.8594C36.7783 51.7216 36.5958 51.527 36.468 51.2756C36.3401 51.0227 36.2762 50.7251 36.2762 50.3828C36.2762 50.0462 36.3401 49.7507 36.468 49.4964C36.5972 49.2408 36.7776 49.0419 37.0091 48.8999C37.2407 48.7564 37.5127 48.6847 37.8252 48.6847C38.0269 48.6847 38.2172 48.7173 38.3962 48.7827C38.5766 48.8466 38.7357 48.946 38.8735 49.081C39.0127 49.2159 39.1221 49.3878 39.2016 49.5966C39.2812 49.804 39.3209 50.0511 39.3209 50.3381V50.5746H36.6384V50.0547H38.5816C38.5802 49.907 38.5482 49.7756 38.4857 49.6605C38.4232 49.544 38.3358 49.4524 38.2236 49.3857C38.1128 49.3189 37.9836 49.2855 37.8358 49.2855C37.6782 49.2855 37.5397 49.3239 37.4204 49.4006C37.301 49.4759 37.208 49.5753 37.1412 49.6989C37.0759 49.821 37.0425 49.9553 37.0411 50.1016V50.5554C37.0411 50.7457 37.0759 50.9091 37.1455 51.0455C37.2151 51.1804 37.3124 51.2841 37.4374 51.3565C37.5624 51.4276 37.7087 51.4631 37.8763 51.4631C37.9885 51.4631 38.0901 51.4474 38.181 51.4162C38.2719 51.3835 38.3508 51.3359 38.4175 51.2734C38.4843 51.2109 38.5347 51.1335 38.5688 51.0412L39.289 51.1222C39.2435 51.3125 39.1569 51.4787 39.029 51.6207C38.9026 51.7614 38.7407 51.8707 38.5432 51.9489C38.3458 52.0256 38.1199 52.0639 37.8657 52.0639ZM42.9106 52.0639C42.5825 52.0639 42.2991 51.9957 42.0605 51.8594C41.8232 51.7216 41.6407 51.527 41.5129 51.2756C41.385 51.0227 41.3211 50.7251 41.3211 50.3828C41.3211 50.0462 41.385 49.7507 41.5129 49.4964C41.6421 49.2408 41.8225 49.0419 42.0541 48.8999C42.2856 48.7564 42.5576 48.6847 42.8701 48.6847C43.0718 48.6847 43.2622 48.7173 43.4411 48.7827C43.6215 48.8466 43.7806 48.946 43.9184 49.081C44.0576 49.2159 44.167 49.3878 44.2465 49.5966C44.3261 49.804 44.3659 50.0511 44.3659 50.3381V50.5746H41.6833V50.0547H43.6265C43.6251 49.907 43.5931 49.7756 43.5306 49.6605C43.4681 49.544 43.3808 49.4524 43.2686 49.3857C43.1578 49.3189 43.0285 49.2855 42.8808 49.2855C42.7231 49.2855 42.5846 49.3239 42.4653 49.4006C42.346 49.4759 42.2529 49.5753 42.1862 49.6989C42.1208 49.821 42.0874 49.9553 42.086 50.1016V50.5554C42.086 50.7457 42.1208 50.9091 42.1904 51.0455C42.26 51.1804 42.3573 51.2841 42.4823 51.3565C42.6073 51.4276 42.7536 51.4631 42.9213 51.4631C43.0335 51.4631 43.135 51.4474 43.2259 51.4162C43.3169 51.3835 43.3957 51.3359 43.4624 51.2734C43.5292 51.2109 43.5796 51.1335 43.6137 51.0412L44.3339 51.1222C44.2884 51.3125 44.2018 51.4787 44.074 51.6207C43.9475 51.7614 43.7856 51.8707 43.5882 51.9489C43.3907 52.0256 43.1649 52.0639 42.9106 52.0639ZM45.7897 50.0824V52H45.0184V48.7273H45.7556V49.2834H45.7939C45.8692 49.1001 45.9893 48.9545 46.154 48.8466C46.3202 48.7386 46.5255 48.6847 46.7698 48.6847C46.9956 48.6847 47.1924 48.733 47.36 48.8295C47.529 48.9261 47.6597 49.0661 47.752 49.2493C47.8458 49.4325 47.892 49.6548 47.8905 49.9162V52H47.1192V50.0355C47.1192 49.8168 47.0624 49.6456 46.9488 49.522C46.8366 49.3984 46.681 49.3366 46.4822 49.3366C46.3472 49.3366 46.2272 49.3665 46.1221 49.4261C46.0184 49.4844 45.9367 49.5689 45.877 49.6797C45.8188 49.7905 45.7897 49.9247 45.7897 50.0824ZM50.1022 52.0639C49.7755 52.0639 49.4949 51.9922 49.2606 51.8487C49.0276 51.7053 48.8479 51.5071 48.7215 51.2543C48.5965 51 48.534 50.7074 48.534 50.3764C48.534 50.044 48.5979 49.7507 48.7258 49.4964C48.8536 49.2408 49.034 49.0419 49.267 48.8999C49.5013 48.7564 49.7783 48.6847 50.0979 48.6847C50.3635 48.6847 50.5986 48.7337 50.8032 48.8317C51.0091 48.9283 51.1732 49.0653 51.2954 49.2429C51.4175 49.419 51.4871 49.625 51.5042 49.8608H50.767C50.7371 49.7031 50.6661 49.5717 50.5539 49.4666C50.4431 49.3601 50.2947 49.3068 50.1086 49.3068C49.9509 49.3068 49.8124 49.3494 49.6931 49.4347C49.5738 49.5185 49.4807 49.6392 49.414 49.7969C49.3486 49.9545 49.316 50.1435 49.316 50.3636C49.316 50.5866 49.3486 50.7784 49.414 50.9389C49.4793 51.098 49.5709 51.2209 49.6888 51.3075C49.8081 51.3928 49.9481 51.4354 50.1086 51.4354C50.2222 51.4354 50.3238 51.4141 50.4133 51.3714C50.5042 51.3274 50.5802 51.2642 50.6412 51.1818C50.7023 51.0994 50.7442 50.9993 50.767 50.8814H51.5042C51.4857 51.1129 51.4175 51.3182 51.2996 51.4972C51.1817 51.6747 51.0212 51.8139 50.8181 51.9148C50.615 52.0142 50.3763 52.0639 50.1022 52.0639ZM53.5651 52.0639C53.2455 52.0639 52.9685 51.9936 52.7341 51.853C52.4997 51.7124 52.3179 51.5156 52.1887 51.2628C52.0608 51.0099 51.9969 50.7145 51.9969 50.3764C51.9969 50.0384 52.0608 49.7422 52.1887 49.4879C52.3179 49.2337 52.4997 49.0362 52.7341 48.8956C52.9685 48.755 53.2455 48.6847 53.5651 48.6847C53.8847 48.6847 54.1617 48.755 54.396 48.8956C54.6304 49.0362 54.8115 49.2337 54.9394 49.4879C55.0686 49.7422 55.1333 50.0384 55.1333 50.3764C55.1333 50.7145 55.0686 51.0099 54.9394 51.2628C54.8115 51.5156 54.6304 51.7124 54.396 51.853C54.1617 51.9936 53.8847 52.0639 53.5651 52.0639ZM53.5693 51.446C53.7426 51.446 53.8875 51.3984 54.004 51.3033C54.1205 51.2067 54.2071 51.0774 54.2639 50.9155C54.3222 50.7536 54.3513 50.5732 54.3513 50.3743C54.3513 50.174 54.3222 49.9929 54.2639 49.831C54.2071 49.6676 54.1205 49.5376 54.004 49.4411C53.8875 49.3445 53.7426 49.2962 53.5693 49.2962C53.3918 49.2962 53.2441 49.3445 53.1262 49.4411C53.0097 49.5376 52.9223 49.6676 52.8641 49.831C52.8073 49.9929 52.7789 50.174 52.7789 50.3743C52.7789 50.5732 52.8073 50.7536 52.8641 50.9155C52.9223 51.0774 53.0097 51.2067 53.1262 51.3033C53.2441 51.3984 53.3918 51.446 53.5693 51.446ZM56.5592 50.0824V52H55.7879V48.7273H56.5251V49.2834H56.5635C56.6388 49.1001 56.7588 48.9545 56.9236 48.8466C57.0898 48.7386 57.295 48.6847 57.5393 48.6847C57.7652 48.6847 57.9619 48.733 58.1295 48.8295C58.2986 48.9261 58.4292 49.0661 58.5216 49.2493C58.6153 49.4325 58.6615 49.6548 58.6601 49.9162V52H57.8888V50.0355C57.8888 49.8168 57.8319 49.6456 57.7183 49.522C57.6061 49.3984 57.4506 49.3366 57.2517 49.3366C57.1167 49.3366 56.9967 49.3665 56.8916 49.4261C56.7879 49.4844 56.7062 49.5689 56.6466 49.6797C56.5883 49.7905 56.5592 49.9247 56.5592 50.0824ZM61.0784 48.7273V49.3239H59.197V48.7273H61.0784ZM59.6615 47.9432H60.4328V51.0156C60.4328 51.1193 60.4484 51.1989 60.4797 51.2543C60.5123 51.3082 60.555 51.3452 60.6075 51.3651C60.6601 51.3849 60.7183 51.3949 60.7822 51.3949C60.8305 51.3949 60.8746 51.3913 60.9143 51.3842C60.9555 51.3771 60.9868 51.3707 61.0081 51.3651L61.1381 51.968C61.0969 51.9822 61.0379 51.9979 60.9612 52.0149C60.8859 52.032 60.7936 52.0419 60.6842 52.0447C60.491 52.0504 60.317 52.0213 60.1622 51.9574C60.0074 51.892 59.8845 51.7912 59.7936 51.6548C59.7041 51.5185 59.6601 51.348 59.6615 51.1435V47.9432ZM61.7235 52V48.7273H62.4713V49.2727H62.5054C62.5651 49.0838 62.6673 48.9382 62.8122 48.8359C62.9585 48.7322 63.1254 48.6804 63.3129 48.6804C63.3556 48.6804 63.4031 48.6825 63.4557 48.6868C63.5097 48.6896 63.5544 48.6946 63.5899 48.7017V49.4112C63.5573 49.3999 63.5054 49.3899 63.4344 49.3814C63.3648 49.3714 63.2973 49.3665 63.232 49.3665C63.0914 49.3665 62.9649 49.397 62.8527 49.4581C62.7419 49.5178 62.6546 49.6009 62.5906 49.7074C62.5267 49.8139 62.4948 49.9368 62.4948 50.076V52H61.7235ZM65.3952 52.0639C65.0756 52.0639 64.7986 51.9936 64.5642 51.853C64.3298 51.7124 64.148 51.5156 64.0187 51.2628C63.8909 51.0099 63.827 50.7145 63.827 50.3764C63.827 50.0384 63.8909 49.7422 64.0187 49.4879C64.148 49.2337 64.3298 49.0362 64.5642 48.8956C64.7986 48.755 65.0756 48.6847 65.3952 48.6847C65.7148 48.6847 65.9917 48.755 66.2261 48.8956C66.4605 49.0362 66.6416 49.2337 66.7694 49.4879C66.8987 49.7422 66.9633 50.0384 66.9633 50.3764C66.9633 50.7145 66.8987 51.0099 66.7694 51.2628C66.6416 51.5156 66.4605 51.7124 66.2261 51.853C65.9917 51.9936 65.7148 52.0639 65.3952 52.0639ZM65.3994 51.446C65.5727 51.446 65.7176 51.3984 65.8341 51.3033C65.9506 51.2067 66.0372 51.0774 66.094 50.9155C66.1523 50.7536 66.1814 50.5732 66.1814 50.3743C66.1814 50.174 66.1523 49.9929 66.094 49.831C66.0372 49.6676 65.9506 49.5376 65.8341 49.4411C65.7176 49.3445 65.5727 49.2962 65.3994 49.2962C65.2219 49.2962 65.0741 49.3445 64.9562 49.4411C64.8398 49.5376 64.7524 49.6676 64.6942 49.831C64.6373 49.9929 64.6089 50.174 64.6089 50.3743C64.6089 50.5732 64.6373 50.7536 64.6942 50.9155C64.7524 51.0774 64.8398 51.2067 64.9562 51.3033C65.0741 51.3984 65.2219 51.446 65.3994 51.446ZM65.099 48.2969L65.5763 47.3232H66.3305L65.6764 48.2969H65.099ZM69.1063 52V48.7273H69.8776V52H69.1063ZM69.4941 48.2628C69.3719 48.2628 69.2668 48.2223 69.1787 48.1413C69.0906 48.0589 69.0466 47.9602 69.0466 47.8452C69.0466 47.7287 69.0906 47.63 69.1787 47.549C69.2668 47.4666 69.3719 47.4254 69.4941 47.4254C69.6176 47.4254 69.7227 47.4666 69.8094 47.549C69.8975 47.63 69.9415 47.7287 69.9415 47.8452C69.9415 47.9602 69.8975 48.0589 69.8094 48.1413C69.7227 48.2223 69.6176 48.2628 69.4941 48.2628ZM70.6707 52V48.7273H71.4079V49.2834H71.4463C71.5145 49.0959 71.6274 48.9496 71.7851 48.8445C71.9427 48.7379 72.1309 48.6847 72.3497 48.6847C72.5713 48.6847 72.7581 48.7386 72.9101 48.8466C73.0635 48.9531 73.1714 49.0987 73.2339 49.2834H73.268C73.3405 49.1016 73.4626 48.9567 73.6345 48.8487C73.8078 48.7393 74.0131 48.6847 74.2503 48.6847C74.5514 48.6847 74.7971 48.7798 74.9875 48.9702C75.1778 49.1605 75.273 49.4382 75.273 49.8033V52H74.4996V49.9226C74.4996 49.7195 74.4456 49.571 74.3376 49.4773C74.2297 49.3821 74.0976 49.3345 73.9413 49.3345C73.7552 49.3345 73.6096 49.3928 73.5045 49.5092C73.4008 49.6243 73.349 49.7741 73.349 49.9588V52H72.5926V49.8906C72.5926 49.7216 72.5415 49.5866 72.4392 49.4858C72.3383 49.3849 72.2062 49.3345 72.0429 49.3345C71.9321 49.3345 71.8312 49.3629 71.7403 49.4197C71.6494 49.4751 71.577 49.554 71.523 49.6562C71.469 49.7571 71.442 49.875 71.442 50.0099V52H70.6707ZM76.9972 52.0661C76.7899 52.0661 76.6031 52.0291 76.4369 51.9553C76.2721 51.88 76.1414 51.7692 76.0448 51.6229C75.9497 51.4766 75.9021 51.2962 75.9021 51.0817C75.9021 50.897 75.9362 50.7443 76.0044 50.6236C76.0725 50.5028 76.1656 50.4062 76.2835 50.3338C76.4014 50.2614 76.5342 50.2067 76.6819 50.1697C76.8311 50.1314 76.9852 50.1037 77.1443 50.0866C77.336 50.0668 77.4916 50.049 77.6109 50.0334C77.7302 50.0163 77.8169 49.9908 77.8708 49.9567C77.9262 49.9212 77.9539 49.8665 77.9539 49.7926V49.7798C77.9539 49.6193 77.9063 49.495 77.8112 49.407C77.716 49.3189 77.5789 49.2749 77.3999 49.2749C77.211 49.2749 77.0612 49.3161 76.9504 49.3984C76.841 49.4808 76.7671 49.5781 76.7288 49.6903L76.0086 49.5881C76.0654 49.3892 76.1592 49.223 76.2899 49.0895C76.4205 48.9545 76.5803 48.8537 76.7693 48.7869C76.9582 48.7188 77.167 48.6847 77.3957 48.6847C77.5534 48.6847 77.7103 48.7031 77.8666 48.7401C78.0228 48.777 78.1656 48.8381 78.2948 48.9233C78.4241 49.0071 78.5278 49.1214 78.6059 49.2663C78.6855 49.4112 78.7252 49.5923 78.7252 49.8097V52H77.9838V51.5504H77.9582C77.9113 51.6413 77.8453 51.7266 77.76 51.8061C77.6762 51.8842 77.5704 51.9474 77.4426 51.9957C77.3161 52.0426 77.1677 52.0661 76.9972 52.0661ZM77.1975 51.4993C77.3524 51.4993 77.4866 51.4687 77.6002 51.4077C77.7139 51.3452 77.8012 51.2628 77.8623 51.1605C77.9248 51.0582 77.9561 50.9467 77.9561 50.826V50.4403C77.9319 50.4602 77.8907 50.4787 77.8325 50.4957C77.7757 50.5128 77.7117 50.5277 77.6407 50.5405C77.5697 50.5533 77.4994 50.5646 77.4298 50.5746C77.3602 50.5845 77.2998 50.593 77.2487 50.6001C77.1336 50.6158 77.0306 50.6413 76.9397 50.6768C76.8488 50.7124 76.7771 50.7621 76.7245 50.826C76.672 50.8885 76.6457 50.9695 76.6457 51.0689C76.6457 51.2109 76.6975 51.3182 76.8012 51.3906C76.9049 51.4631 77.037 51.4993 77.1975 51.4993ZM80.9241 53.2955C80.6471 53.2955 80.4092 53.2578 80.2103 53.1825C80.0115 53.1087 79.8517 53.0092 79.7309 52.8842C79.6102 52.7592 79.5264 52.6207 79.4795 52.4688L80.1741 52.3004C80.2053 52.3643 80.2508 52.4276 80.3105 52.4901C80.3701 52.554 80.4504 52.6065 80.5512 52.6477C80.6535 52.6903 80.782 52.7116 80.9369 52.7116C81.1556 52.7116 81.3367 52.6584 81.4802 52.5518C81.6237 52.4467 81.6954 52.2734 81.6954 52.032V51.4119H81.657C81.6173 51.4915 81.559 51.5732 81.4823 51.657C81.407 51.7408 81.3069 51.8111 81.1819 51.8679C81.0583 51.9247 80.9028 51.9531 80.7153 51.9531C80.4639 51.9531 80.2359 51.8942 80.0313 51.7763C79.8282 51.657 79.6663 51.4794 79.5455 51.2436C79.4262 51.0064 79.3666 50.7095 79.3666 50.353C79.3666 49.9936 79.4262 49.6903 79.5455 49.4432C79.6663 49.1946 79.8289 49.0064 80.0335 48.8786C80.238 48.7493 80.466 48.6847 80.7174 48.6847C80.9092 48.6847 81.0669 48.7173 81.1904 48.7827C81.3154 48.8466 81.4149 48.924 81.4887 49.0149C81.5626 49.1044 81.6187 49.1889 81.657 49.2685H81.6997V48.7273H82.4603V52.0533C82.4603 52.3331 82.3936 52.5646 82.26 52.7479C82.1265 52.9311 81.944 53.0682 81.7124 53.1591C81.4809 53.25 81.2181 53.2955 80.9241 53.2955ZM80.9305 51.348C81.0938 51.348 81.233 51.3082 81.3481 51.2287C81.4632 51.1491 81.5505 51.0348 81.6102 50.8857C81.6698 50.7365 81.6997 50.5575 81.6997 50.3487C81.6997 50.1428 81.6698 49.9624 81.6102 49.8075C81.5519 49.6527 81.4653 49.5327 81.3502 49.4474C81.2366 49.3608 81.0967 49.3175 80.9305 49.3175C80.7586 49.3175 80.6151 49.3622 80.5001 49.4517C80.385 49.5412 80.2984 49.6641 80.2401 49.8203C80.1819 49.9751 80.1528 50.1513 80.1528 50.3487C80.1528 50.549 80.1819 50.7244 80.2401 50.875C80.2998 51.0241 80.3872 51.1406 80.5022 51.2244C80.6187 51.3068 80.7615 51.348 80.9305 51.348ZM84.6997 52.0639C84.3715 52.0639 84.0882 51.9957 83.8495 51.8594C83.6123 51.7216 83.4298 51.527 83.3019 51.2756C83.1741 51.0227 83.1102 50.7251 83.1102 50.3828C83.1102 50.0462 83.1741 49.7507 83.3019 49.4964C83.4312 49.2408 83.6116 49.0419 83.8431 48.8999C84.0747 48.7564 84.3467 48.6847 84.6592 48.6847C84.8609 48.6847 85.0512 48.7173 85.2302 48.7827C85.4106 48.8466 85.5697 48.946 85.7075 49.081C85.8467 49.2159 85.9561 49.3878 86.0356 49.5966C86.1151 49.804 86.1549 50.0511 86.1549 50.3381V50.5746H83.4724V50.0547H85.4156C85.4142 49.907 85.3822 49.7756 85.3197 49.6605C85.2572 49.544 85.1698 49.4524 85.0576 49.3857C84.9468 49.3189 84.8176 49.2855 84.6698 49.2855C84.5122 49.2855 84.3737 49.3239 84.2544 49.4006C84.135 49.4759 84.042 49.5753 83.9752 49.6989C83.9099 49.821 83.8765 49.9553 83.8751 50.1016V50.5554C83.8751 50.7457 83.9099 50.9091 83.9795 51.0455C84.0491 51.1804 84.1464 51.2841 84.2714 51.3565C84.3964 51.4276 84.5427 51.4631 84.7103 51.4631C84.8225 51.4631 84.9241 51.4474 85.015 51.4162C85.1059 51.3835 85.1847 51.3359 85.2515 51.2734C85.3183 51.2109 85.3687 51.1335 85.4028 51.0412L86.123 51.1222C86.0775 51.3125 85.9909 51.4787 85.863 51.6207C85.7366 51.7614 85.5747 51.8707 85.3772 51.9489C85.1798 52.0256 84.9539 52.0639 84.6997 52.0639ZM87.5787 50.0824V52H86.8074V48.7273H87.5447V49.2834H87.583C87.6583 49.1001 87.7783 48.9545 87.9431 48.8466C88.1093 48.7386 88.3145 48.6847 88.5589 48.6847C88.7847 48.6847 88.9814 48.733 89.1491 48.8295C89.3181 48.9261 89.4488 49.0661 89.5411 49.2493C89.6349 49.4325 89.681 49.6548 89.6796 49.9162V52H88.9083V50.0355C88.9083 49.8168 88.8515 49.6456 88.7378 49.522C88.6256 49.3984 88.4701 49.3366 88.2712 49.3366C88.1363 49.3366 88.0162 49.3665 87.9111 49.4261C87.8074 49.4844 87.7258 49.5689 87.6661 49.6797C87.6079 49.7905 87.5787 49.9247 87.5787 50.0824Z" fill="#515151"/>
<defs>
<filter id="filter0_d_635_651" x="0" y="0" width="114" height="77" filterUnits="userSpaceOnUse" color-interpolation-filters="sRGB">
<feFlood flood-opacity="0" result="BackgroundImageFix"/>
<feColorMatrix in="SourceAlpha" type="matrix" values="0 0 0 0 0 0 0 0 0 0 0 0 0 0 0 0 0 0 127 0" result="hardAlpha"/>
<feOffset dy="4"/>
<feGaussianBlur stdDeviation="2"/>
<feComposite in2="hardAlpha" operator="out"/>
<feColorMatrix type="matrix" values="0 0 0 0 0 0 0 0 0 0 0 0 0 0 0 0 0 0 0.25 0"/>
<feBlend mode="normal" in2="BackgroundImageFix" result="effect1_dropShadow_635_651"/>
<feBlend mode="normal" in="SourceGraphic" in2="effect1_dropShadow_635_651" result="shape"/>
</filter>
</defs>
</svg>
