<svg width="45" height="45" viewBox="0 0 45 45" fill="none" xmlns="http://www.w3.org/2000/svg">
<g clip-path="url(#clip0_964_1348)">
<g filter="url(#filter0_d_964_1348)">
<path d="M22.5 4.6875C23.2459 4.6875 23.9613 4.98382 24.4887 5.51126C25.0162 6.03871 25.3125 6.75408 25.3125 7.5C25.3125 8.24592 25.0162 8.96129 24.4887 9.48874C23.9613 10.0162 23.2459 10.3125 22.5 10.3125H13.125C12.8764 10.3125 12.6379 10.4113 12.4621 10.5871C12.2863 10.7629 12.1875 11.0014 12.1875 11.25V33.75C12.1875 33.9986 12.2863 34.2371 12.4621 34.4129C12.6379 34.5887 12.8764 34.6875 13.125 34.6875H21.5625C22.3084 34.6875 23.0238 34.9838 23.5512 35.5113C24.0787 36.0387 24.375 36.7541 24.375 37.5C24.375 38.2459 24.0787 38.9613 23.5512 39.4887C23.0238 40.0162 22.3084 40.3125 21.5625 40.3125H13.125C11.3845 40.3125 9.71532 39.6211 8.48461 38.3904C7.2539 37.1597 6.5625 35.4905 6.5625 33.75V11.25C6.5625 9.50952 7.2539 7.84032 8.48461 6.60961C9.71532 5.3789 11.3845 4.6875 13.125 4.6875H22.5ZM33.8625 15.2062L39.1669 20.5125C39.6936 21.0398 39.9894 21.7547 39.9894 22.5C39.9894 23.2453 39.6936 23.9602 39.1669 24.4875L33.8644 29.7938C33.3368 30.3214 32.6212 30.6178 31.875 30.6178C31.1288 30.6178 30.4132 30.3214 29.8856 29.7938C29.358 29.2661 29.0616 28.5505 29.0616 27.8044C29.0616 27.0582 29.358 26.3426 29.8856 25.815L30.3881 25.3125H22.5C21.7541 25.3125 21.0387 25.0162 20.5113 24.4887C19.9838 23.9613 19.6875 23.2459 19.6875 22.5C19.6875 21.7541 19.9838 21.0387 20.5113 20.5113C21.0387 19.9838 21.7541 19.6875 22.5 19.6875H30.3881L29.8856 19.185C29.6245 18.9238 29.4174 18.6136 29.2761 18.2723C29.1348 17.931 29.0622 17.5653 29.0623 17.1959C29.0623 16.8265 29.1352 16.4608 29.2766 16.1196C29.4181 15.7783 29.6253 15.4683 29.8866 15.2072C30.1478 14.9461 30.4579 14.739 30.7992 14.5977C31.1405 14.4564 31.5063 14.3837 31.8757 14.3838C32.245 14.3839 32.6108 14.4568 32.952 14.5982C33.2932 14.7396 33.6032 14.9469 33.8644 15.2081L33.8625 15.2062Z" fill="white"/>
<path d="M13.125 5.1875H22.5C23.0367 5.1875 23.5543 5.37376 23.9658 5.71094L24.1348 5.86523C24.5684 6.29891 24.8125 6.88669 24.8125 7.5C24.8125 8.03666 24.6262 8.55432 24.2891 8.96582L24.1348 9.13477C23.7011 9.56844 23.1133 9.8125 22.5 9.8125H13.125C12.7438 9.8125 12.378 9.96382 12.1084 10.2334C11.8388 10.503 11.6875 10.8688 11.6875 11.25V33.75C11.6875 34.0835 11.8032 34.4054 12.0127 34.6611L12.1084 34.7666C12.378 35.0362 12.7438 35.1875 13.125 35.1875H21.5625C22.0992 35.1875 22.6168 35.3738 23.0283 35.7109L23.1973 35.8652C23.6309 36.2989 23.875 36.8867 23.875 37.5C23.875 38.1133 23.6309 38.7011 23.1973 39.1348C22.7636 39.5684 22.1758 39.8125 21.5625 39.8125H13.125C11.6175 39.8125 10.1678 39.2512 9.05566 38.2441L8.83789 38.0371C7.70095 36.9002 7.0625 35.3579 7.0625 33.75V11.25C7.0625 9.74253 7.62377 8.2928 8.63086 7.18066L8.83789 6.96289C9.97483 5.82595 11.5171 5.1875 13.125 5.1875ZM31.876 14.8838C32.1037 14.8839 32.3298 14.9175 32.5469 14.9834L32.7607 15.0605C32.9712 15.1478 33.1674 15.2651 33.3428 15.4092L33.5107 15.5615L38.8135 20.8662C39.2463 21.2998 39.4893 21.8874 39.4893 22.5C39.4893 23.0362 39.3035 23.5535 38.9668 23.9648L38.8135 24.1338L33.5107 29.4404C33.0769 29.8742 32.4885 30.1182 31.875 30.1182C31.2615 30.1182 30.6731 29.8742 30.2393 29.4404C29.8055 29.0067 29.5616 28.4181 29.5615 27.8047C29.5615 27.2676 29.7484 26.7496 30.0859 26.3379L30.2393 26.1689L30.7412 25.666L31.5957 24.8125H22.5C21.9633 24.8125 21.4457 24.6262 21.0342 24.2891L20.8652 24.1348C20.4316 23.7011 20.1875 23.1133 20.1875 22.5C20.1875 21.8867 20.4316 21.2989 20.8652 20.8652C21.2989 20.4316 21.8867 20.1875 22.5 20.1875H31.5957L30.7412 19.334L30.2393 18.8311C30.0247 18.6163 29.8544 18.3616 29.7383 18.0811C29.6222 17.8005 29.5625 17.4999 29.5625 17.1963L29.5732 16.9688C29.5956 16.743 29.6511 16.5209 29.7383 16.3105C29.8254 16.1004 29.9431 15.9047 30.0869 15.7295L30.2402 15.5605C30.4013 15.3996 30.5851 15.2641 30.7852 15.1572L30.9902 15.0596C31.2709 14.9434 31.5723 14.8837 31.876 14.8838Z" stroke="black"/>
</g>
</g>
<defs>
<filter id="filter0_d_964_1348" x="2.5625" y="4.6875" width="41.4269" height="43.625" filterUnits="userSpaceOnUse" color-interpolation-filters="sRGB">
<feFlood flood-opacity="0" result="BackgroundImageFix"/>
<feColorMatrix in="SourceAlpha" type="matrix" values="0 0 0 0 0 0 0 0 0 0 0 0 0 0 0 0 0 0 127 0" result="hardAlpha"/>
<feOffset dy="4"/>
<feGaussianBlur stdDeviation="2"/>
<feComposite in2="hardAlpha" operator="out"/>
<feColorMatrix type="matrix" values="0 0 0 0 0 0 0 0 0 0 0 0 0 0 0 0 0 0 0.25 0"/>
<feBlend mode="normal" in2="BackgroundImageFix" result="effect1_dropShadow_964_1348"/>
<feBlend mode="normal" in="SourceGraphic" in2="effect1_dropShadow_964_1348" result="shape"/>
</filter>
<clipPath id="clip0_964_1348">
<rect width="45" height="45" fill="white"/>
</clipPath>
</defs>
</svg>
