<svg width="45" height="45" viewBox="0 0 45 45" fill="none" xmlns="http://www.w3.org/2000/svg">
<g clip-path="url(#clip0_964_1352)">
<g filter="url(#filter0_d_964_1352)">
<path fill-rule="evenodd" clip-rule="evenodd" d="M12.8571 17.8168V13.6607H9.64286C8.79038 13.6607 7.97281 13.9993 7.37001 14.6021C6.76722 15.2049 6.42857 16.0225 6.42857 16.875V28.125C6.42857 28.9775 6.76722 29.795 7.37001 30.3978C7.97281 31.0006 8.79038 31.3393 9.64286 31.3393H12.8571C13.7096 31.3393 14.5272 31.6779 15.13 32.2807C15.7328 32.8835 16.0714 33.7011 16.0714 34.5535C16.0714 35.406 15.7328 36.2236 15.13 36.8264C14.5272 37.4292 13.7096 37.7678 12.8571 37.7678H9.64286C7.08541 37.7678 4.63271 36.7519 2.82433 34.9435C1.01594 33.1351 0 30.6824 0 28.125L0 16.875C0 14.3175 1.01594 11.8648 2.82433 10.0564C4.63271 8.24805 7.08541 7.23211 9.64286 7.23211H12.8571V3.07604C12.8572 2.75803 12.9516 2.44719 13.1284 2.18287C13.3052 1.91854 13.5565 1.7126 13.8504 1.59112C14.1442 1.46964 14.4676 1.43808 14.7794 1.50043C15.0912 1.56279 15.3776 1.71625 15.6021 1.9414L22.9693 9.30854C23.119 9.45783 23.2377 9.63518 23.3187 9.83043C23.3997 10.0257 23.4414 10.235 23.4414 10.4464C23.4414 10.6578 23.3997 10.8671 23.3187 11.0624C23.2377 11.2576 23.119 11.435 22.9693 11.5843L15.6021 18.9514C15.3776 19.1765 15.0912 19.33 14.7794 19.3924C14.4676 19.4547 14.1442 19.4232 13.8504 19.3017C13.5565 19.1802 13.3052 18.9743 13.1284 18.7099C12.9516 18.4456 12.8572 18.1348 12.8571 17.8168ZM32.1429 37.7678V41.9239C32.1434 42.2422 32.0495 42.5535 31.8729 42.8183C31.6964 43.0831 31.4452 43.2895 31.1511 43.4114C30.8571 43.5333 30.5335 43.5651 30.2214 43.5029C29.9093 43.4406 29.6226 43.2871 29.3979 43.0618L22.0307 35.6914C21.881 35.5421 21.7623 35.3648 21.6813 35.1695C21.6003 34.9743 21.5586 34.7649 21.5586 34.5535C21.5586 34.3421 21.6003 34.1328 21.6813 33.9376C21.7623 33.7423 21.881 33.565 22.0307 33.4157L29.3979 26.0485C29.6224 25.8234 29.9088 25.6699 30.2206 25.6076C30.5324 25.5452 30.8558 25.5768 31.1496 25.6983C31.4435 25.8197 31.6948 26.0257 31.8716 26.29C32.0484 26.5543 32.1428 26.8652 32.1429 27.1832V31.3393H35.3571C36.2096 31.3393 37.0272 31.0006 37.63 30.3978C38.2328 29.795 38.5714 28.9775 38.5714 28.125V16.875C38.5714 16.0225 38.2328 15.2049 37.63 14.6021C37.0272 13.9993 36.2096 13.6607 35.3571 13.6607H32.1429C31.2904 13.6607 30.4728 13.322 29.87 12.7192C29.2672 12.1164 28.9286 11.2989 28.9286 10.4464C28.9286 9.59392 29.2672 8.77635 29.87 8.17355C30.4728 7.57076 31.2904 7.23211 32.1429 7.23211H35.3571C37.9146 7.23211 40.3673 8.24805 42.1757 10.0564C43.9841 11.8648 45 14.3175 45 16.875V28.125C45 30.6824 43.9841 33.1351 42.1757 34.9435C40.3673 36.7519 37.9146 37.7678 35.3571 37.7678H32.1429Z" fill="white"/>
<path d="M32.1426 7.73193H35.3574C37.6305 7.732 39.8161 8.57879 41.4932 10.0972L41.8223 10.4097C43.5368 12.1242 44.4999 14.4498 44.5 16.8745V28.1245C44.5 30.3977 43.6533 32.5841 42.1348 34.2612L41.8223 34.5903C40.1077 36.3048 37.7821 37.268 35.3574 37.2681H31.6426V41.9243L31.6309 42.0884C31.615 42.1959 31.5835 42.3006 31.5371 42.3989L31.457 42.5405C31.3658 42.6773 31.2453 42.7915 31.1055 42.8755L30.96 42.9497C30.7574 43.0337 30.5343 43.0551 30.3193 43.0122C30.1582 42.9801 30.0068 42.913 29.876 42.8159L29.752 42.7085L22.3848 35.3384L22.3838 35.3374L22.3105 35.2563C22.2646 35.2004 22.2236 35.1405 22.1895 35.0767L22.1436 34.978C22.0877 34.8435 22.0586 34.6989 22.0586 34.5532C22.0586 34.4077 22.0878 34.2638 22.1436 34.1294C22.1854 34.0285 22.2414 33.9342 22.3105 33.8501L22.3838 33.77V33.769L29.751 26.4019H29.752C29.8679 26.2856 30.0079 26.1972 30.1611 26.1421L30.3184 26.0981C30.5332 26.0552 30.7565 26.077 30.959 26.1606C31.1106 26.2234 31.246 26.3185 31.3555 26.439L31.4561 26.5679C31.5778 26.7499 31.6425 26.9641 31.6426 27.1831V31.8394H35.3574C36.2807 31.8393 37.1684 31.4951 37.8496 30.8784L37.9834 30.7515C38.68 30.0549 39.0713 29.1096 39.0713 28.1245V16.8745C39.0712 15.9512 38.7272 15.0636 38.1104 14.3823L37.9834 14.2485C37.2869 13.5521 36.3424 13.1607 35.3574 13.1606H32.1426C31.5129 13.1606 30.9057 12.9419 30.4229 12.5464L30.2236 12.3657C29.7147 11.8568 29.4288 11.1665 29.4287 10.4468C29.4287 9.81692 29.6473 9.20906 30.043 8.72607L30.2236 8.52686C30.7326 8.01799 31.4229 7.73201 32.1426 7.73193ZM14.6816 1.99072C14.8428 2.023 14.9941 2.09067 15.125 2.18799L15.248 2.29443L15.249 2.29541L22.6162 9.66162V9.6626C22.6935 9.7397 22.7592 9.82746 22.8105 9.92334L22.8564 10.022C22.9123 10.1565 22.9414 10.3012 22.9414 10.4468C22.9414 10.5558 22.9251 10.6641 22.8936 10.7681L22.8564 10.8706C22.8146 10.9715 22.7586 11.0658 22.6895 11.1499L22.6162 11.23V11.231L15.249 18.5981H15.248C15.1321 18.7144 14.9921 18.8028 14.8389 18.8579L14.6816 18.9019C14.5205 18.9341 14.3545 18.9306 14.1963 18.8911L14.041 18.8394C13.8894 18.7766 13.754 18.6815 13.6445 18.561L13.5439 18.4321C13.4222 18.2501 13.3575 18.0359 13.3574 17.8169V13.1606H9.64258C8.71927 13.1607 7.83164 13.5048 7.15039 14.1216L7.0166 14.2485C6.32015 14.945 5.92883 15.8896 5.92871 16.8745V28.1245C5.92871 29.048 6.27272 29.9363 6.88965 30.6177L7.0166 30.7515C7.71309 31.4479 8.65765 31.8393 9.64258 31.8394H12.8574C13.4871 31.8394 14.0943 32.0581 14.5771 32.4536L14.7764 32.6343C15.2853 33.1432 15.5712 33.8335 15.5713 34.5532C15.5713 35.1831 15.3528 35.7909 14.957 36.2739L14.7764 36.4731C14.2674 36.982 13.5771 37.268 12.8574 37.2681H9.64258C7.36956 37.268 5.18389 36.4212 3.50684 34.9028L3.17773 34.5903C1.46312 32.8757 0.5 30.5493 0.5 28.1245V16.8745C0.500113 14.6015 1.34679 12.4158 2.86523 10.7388L3.17773 10.4097C4.89228 8.69517 7.21788 7.73201 9.64258 7.73193H13.3574V3.07568L13.3691 2.91357C13.3851 2.80593 13.4173 2.7014 13.4639 2.60303L13.5439 2.46045C13.6353 2.32393 13.7557 2.21017 13.8955 2.12646L14.041 2.05322C14.193 1.99042 14.3567 1.96208 14.5195 1.97021L14.6816 1.99072Z" stroke="black"/>
</g>
</g>
<defs>
<filter id="filter0_d_964_1352" x="-4" y="1.46924" width="53" height="50.0647" filterUnits="userSpaceOnUse" color-interpolation-filters="sRGB">
<feFlood flood-opacity="0" result="BackgroundImageFix"/>
<feColorMatrix in="SourceAlpha" type="matrix" values="0 0 0 0 0 0 0 0 0 0 0 0 0 0 0 0 0 0 127 0" result="hardAlpha"/>
<feOffset dy="4"/>
<feGaussianBlur stdDeviation="2"/>
<feComposite in2="hardAlpha" operator="out"/>
<feColorMatrix type="matrix" values="0 0 0 0 0 0 0 0 0 0 0 0 0 0 0 0 0 0 0.25 0"/>
<feBlend mode="normal" in2="BackgroundImageFix" result="effect1_dropShadow_964_1352"/>
<feBlend mode="normal" in="SourceGraphic" in2="effect1_dropShadow_964_1352" result="shape"/>
</filter>
<clipPath id="clip0_964_1352">
<rect width="45" height="45" fill="white"/>
</clipPath>
</defs>
</svg>
