<svg width="45" height="45" viewBox="0 0 45 45" fill="none" xmlns="http://www.w3.org/2000/svg">
<g clip-path="url(#clip0_964_1340)">
<g filter="url(#filter0_d_964_1340)">
<path d="M31.875 6.26254C34.7254 7.90821 37.0924 10.2752 38.738 13.1256C40.3837 15.976 41.25 19.2093 41.25 22.5006C41.25 25.792 40.3836 29.0253 38.7379 31.8757C37.0922 34.726 34.7252 37.093 31.8748 38.7386C29.0244 40.3842 25.791 41.2506 22.4997 41.2505C19.2084 41.2505 15.975 40.384 13.1247 38.7383C10.2743 37.0926 7.90742 34.7256 6.26182 31.8752C4.61621 29.0247 3.74992 25.7914 3.75 22.5L3.75938 21.8925C3.86438 18.6544 4.80665 15.4987 6.49432 12.7332C8.182 9.96759 10.5575 7.68652 13.3892 6.11232C16.2209 4.53813 19.4121 3.72454 22.6519 3.75086C25.8916 3.77719 29.0693 4.64254 31.875 6.26254ZM22.5 28.125C22.0027 28.125 21.5258 28.3226 21.1742 28.6742C20.8225 29.0258 20.625 29.5028 20.625 30V30.0188C20.625 30.5161 20.8225 30.993 21.1742 31.3446C21.5258 31.6962 22.0027 31.8938 22.5 31.8938C22.9973 31.8938 23.4742 31.6962 23.8258 31.3446C24.1775 30.993 24.375 30.5161 24.375 30.0188V30C24.375 29.5028 24.1775 29.0258 23.8258 28.6742C23.4742 28.3226 22.9973 28.125 22.5 28.125ZM22.5 15C22.0027 15 21.5258 15.1976 21.1742 15.5492C20.8225 15.9008 20.625 16.3778 20.625 16.875V24.375C20.625 24.8723 20.8225 25.3492 21.1742 25.7009C21.5258 26.0525 22.0027 26.25 22.5 26.25C22.9973 26.25 23.4742 26.0525 23.8258 25.7009C24.1775 25.3492 24.375 24.8723 24.375 24.375V16.875C24.375 16.3778 24.1775 15.9008 23.8258 15.5492C23.4742 15.1976 22.9973 15 22.5 15Z" fill="white"/>
<path d="M22.6475 4.25122C25.6036 4.27524 28.5069 5.01668 31.1084 6.40845L31.625 6.69556C34.3992 8.29727 36.7029 10.601 38.3047 13.3752C39.9064 16.1495 40.75 19.2968 40.75 22.5002C40.75 25.5034 40.009 28.4575 38.5967 31.1008L38.3047 31.6252C36.803 34.2262 34.6846 36.4143 32.1396 37.9973L31.625 38.3059C28.8507 39.9076 25.7035 40.7502 22.5 40.7502L21.8994 40.7405C19.1038 40.6484 16.3665 39.9151 13.8994 38.5969L13.375 38.3049C10.774 36.8032 8.58598 34.685 7.00293 32.1399L6.69531 31.6252C5.09493 28.8532 4.25132 25.7089 4.25 22.5081L4.25977 21.9006L4.25879 21.8997C4.35597 18.9481 5.16897 16.0675 6.62207 13.5032L6.9209 12.9934C8.4608 10.47 10.5893 8.36123 13.1201 6.84497L13.6318 6.54907C16.2159 5.11255 19.1078 4.32656 22.0576 4.25513L22.6475 4.25122ZM22.5 27.6252C21.8701 27.6252 21.2657 27.8752 20.8203 28.3206C20.375 28.7659 20.125 29.3704 20.125 30.0002V30.0188C20.125 30.6487 20.3749 31.2531 20.8203 31.6985C21.2657 32.1439 21.8701 32.3938 22.5 32.3938C23.1299 32.3938 23.7343 32.1439 24.1797 31.6985C24.6251 31.2531 24.875 30.6487 24.875 30.0188V30.0002C24.875 29.3704 24.625 28.7659 24.1797 28.3206C23.7343 27.8752 23.1299 27.6252 22.5 27.6252ZM22.5 14.5002C21.9488 14.5002 21.4177 14.692 20.9951 15.0383L20.8203 15.1956C20.375 15.6409 20.125 16.2454 20.125 16.8752V24.3752C20.1251 25.0049 20.3752 25.6086 20.8203 26.054C21.2657 26.4994 21.8701 26.7502 22.5 26.7502C23.1299 26.7502 23.7343 26.4994 24.1797 26.054C24.6248 25.6086 24.8749 25.0049 24.875 24.3752V16.8752C24.875 16.3239 24.6834 15.7921 24.3369 15.3694L24.1797 15.1956C23.7343 14.7502 23.1299 14.5002 22.5 14.5002Z" stroke="black"/>
</g>
</g>
<defs>
<filter id="filter0_d_964_1340" x="-0.25" y="3.75024" width="45.5" height="45.5002" filterUnits="userSpaceOnUse" color-interpolation-filters="sRGB">
<feFlood flood-opacity="0" result="BackgroundImageFix"/>
<feColorMatrix in="SourceAlpha" type="matrix" values="0 0 0 0 0 0 0 0 0 0 0 0 0 0 0 0 0 0 127 0" result="hardAlpha"/>
<feOffset dy="4"/>
<feGaussianBlur stdDeviation="2"/>
<feComposite in2="hardAlpha" operator="out"/>
<feColorMatrix type="matrix" values="0 0 0 0 0 0 0 0 0 0 0 0 0 0 0 0 0 0 0.25 0"/>
<feBlend mode="normal" in2="BackgroundImageFix" result="effect1_dropShadow_964_1340"/>
<feBlend mode="normal" in="SourceGraphic" in2="effect1_dropShadow_964_1340" result="shape"/>
</filter>
<clipPath id="clip0_964_1340">
<rect width="45" height="45" fill="white"/>
</clipPath>
</defs>
</svg>
