<svg width="50" height="44" viewBox="0 0 50 44" fill="none" xmlns="http://www.w3.org/2000/svg">
<g clip-path="url(#clip0_2241_2579)">
<path d="M24.8192 -0.0524642C24.7379 -0.0395405 24.6576 -0.022017 24.5788 -2.68593e-06C24.1447 0.085631 23.7577 0.301099 23.4838 0.609683C23.21 0.918268 23.0662 1.30087 23.0769 1.6923V3.38461H5.76923C4.23914 3.38461 2.77171 3.9195 1.68977 4.87161C0.607828 5.82372 0 7.11505 0 8.46154L0 30.4615C0 33.264 2.58462 35.5385 5.76923 35.5385H23.0769V36.1731L12.6192 40.7745C12.1571 40.9708 11.8026 41.3207 11.6337 41.7471C11.4647 42.1735 11.4951 42.6414 11.7183 43.0481C11.9414 43.4547 12.339 43.7667 12.8235 43.9154C13.308 44.0641 13.8398 44.0373 14.3019 43.8409L23.0769 39.9808V40.6154C23.0769 41.0642 23.2795 41.4947 23.6402 41.812C24.0008 42.1294 24.49 42.3077 25 42.3077C25.51 42.3077 25.9992 42.1294 26.3598 41.812C26.7205 41.4947 26.9231 41.0642 26.9231 40.6154V39.9808L35.6981 43.8409C36.1602 44.0373 36.692 44.0641 37.1765 43.9154C37.661 43.7667 38.0586 43.4547 38.2817 43.0481C38.5049 42.6414 38.5353 42.1735 38.3663 41.7471C38.1974 41.3207 37.8429 40.9708 37.3808 40.7745L26.9231 36.1731V35.5385H44.2308C47.4154 35.5385 50 33.264 50 30.4615V8.46154C50 7.11505 49.3922 5.82372 48.3102 4.87161C47.2283 3.9195 45.7609 3.38461 44.2308 3.38461H26.9231V1.6923C26.9328 1.45166 26.884 1.21195 26.78 0.989212C26.6761 0.766472 26.5193 0.565823 26.3201 0.400671C26.121 0.23552 25.8841 0.109668 25.6253 0.0315257C25.3664 -0.0466169 25.0916 -0.0752512 24.8192 -0.0524642ZM3.84615 8.46154H46.1538V30.4615H3.84615V8.46154ZM40.1442 10.1538C39.7135 10.1946 39.3109 10.3622 39.0019 10.6294L32.6923 16.1835L28.3058 12.32C28.0957 12.1303 27.838 11.9867 27.5533 11.9006C27.2686 11.8146 26.965 11.7885 26.6668 11.8246C26.3686 11.8606 26.0842 11.9578 25.8365 12.1082C25.5887 12.2586 25.3845 12.4581 25.2404 12.6906L19.5308 21.4703L17.1865 16.2868C17.0727 16.0191 16.8837 15.7812 16.6372 15.5952C16.3906 15.4092 16.0946 15.2812 15.7766 15.2231C15.4587 15.1649 15.1292 15.1786 14.8188 15.2628C14.5085 15.347 14.2275 15.499 14.0019 15.7046L8.23269 20.7815C8.05086 20.9414 7.9066 21.1313 7.80815 21.3402C7.70969 21.5492 7.65897 21.7732 7.65888 21.9994C7.65879 22.2256 7.70934 22.4496 7.80763 22.6586C7.90592 22.8677 8.05003 23.0576 8.23173 23.2176C8.41343 23.3776 8.62917 23.5046 8.86663 23.5912C9.10409 23.6779 9.35861 23.7225 9.61567 23.7226C9.87272 23.7226 10.1273 23.6782 10.3648 23.5917C10.6023 23.5052 10.8182 23.3784 11 23.2185L14.6654 19.9929L17.4308 26.0209C17.5613 26.3232 17.7875 26.5863 18.0827 26.779C18.3778 26.9717 18.7295 27.0859 19.0961 27.1082C19.4628 27.1305 19.829 27.0598 20.1514 26.9046C20.4738 26.7494 20.7389 26.5161 20.9154 26.2325L27.3462 16.3426L31.3115 19.8338C31.4909 19.9971 31.7057 20.1269 31.9433 20.2156C32.1808 20.3043 32.4362 20.35 32.6942 20.35C32.9523 20.35 33.2077 20.3043 33.4452 20.2156C33.6827 20.1269 33.8976 19.9971 34.0769 19.8338L41.7692 13.0646C42.073 12.8171 42.2779 12.49 42.3535 12.1318C42.4291 11.7736 42.3714 11.4035 42.1888 11.0766C42.0063 10.7496 41.7087 10.4832 41.3403 10.3169C40.972 10.1507 40.5525 10.0935 40.1442 10.1538Z" fill="#3B6748"/>
</g>
<defs>
<clipPath id="clip0_2241_2579">
<rect width="50" height="44" fill="white"/>
</clipPath>
</defs>
</svg>
