<svg width="33" height="33" viewBox="0 0 33 33" fill="none" xmlns="http://www.w3.org/2000/svg">
<path d="M2.72602 28.0431L5.07639 30.3937L1.46094 31.8574L2.72602 28.0431Z" fill="#3F3F3F"/>
<path d="M4.93701 20.7997L17.0292 8.70593L24.2941 15.9718L12.3047 27.9628" fill="#F4AA41"/>
<path d="M2.60938 27.6654L4.86662 21.7753L11.2242 28.133L5.33413 30.3906" fill="#A57939"/>
<path d="M20.917 4.81824L25.7346 0L32.9995 7.2659L28.2224 12.043" fill="#EA5A47"/>
<path d="M16.248 9.48817L21.1812 4.55432L28.4462 11.8202L23.5547 16.7123" fill="#9B9B9A"/>
<path d="M23.7507 2.88763L26.0009 0.637787L32.3578 6.99553L30.1269 9.22674M5.26954 21.3719L11.6271 27.7296M5.31706 30.3976L11.2238 28.133L27.9159 11.4387L21.5583 5.0803L4.86625 21.7752L2.59424 27.6892L5.31706 30.3976Z" stroke="black" stroke-width="0.5" stroke-miterlimit="10" stroke-linecap="round" stroke-linejoin="round"/>
<path d="M2.59966 27.6756L1 32L5.33404 30.3905M17.0563 9.9653L23.1647 16.0751" stroke="black" stroke-width="0.5" stroke-miterlimit="10" stroke-linecap="round" stroke-linejoin="round"/>
</svg>
