<svg width="60" height="51" viewBox="0 0 60 51" fill="none" xmlns="http://www.w3.org/2000/svg">
<path d="M47.625 10.4339C45.3327 8.46634 42.6026 6.90629 39.5938 5.84463C36.585 4.78298 33.3577 4.24094 30.1 4.25011C16.45 4.25011 5.325 13.7064 5.325 25.3089C5.325 29.0276 6.475 32.6401 8.625 35.8276L5.125 46.7501L18.25 43.8176C21.875 45.4964 25.95 46.3889 30.1 46.3889C43.75 46.3889 54.875 36.9326 54.875 25.3301C54.875 19.6989 52.3 14.4076 47.625 10.4339ZM30.1 42.8189C26.4 42.8189 22.775 41.9689 19.6 40.3751L18.85 39.9926L11.05 41.7351L13.125 35.2751L12.625 34.6164C10.5689 31.8264 9.47731 28.6011 9.475 25.3089C9.475 15.6614 18.725 7.79886 30.075 7.79886C35.575 7.79886 40.75 9.62636 44.625 12.9414C46.544 14.5646 48.0648 16.4955 49.0991 18.6222C50.1333 20.7489 50.6605 23.0289 50.65 25.3301C50.7 34.9776 41.45 42.8189 30.1 42.8189ZM41.4 29.7289C40.775 29.4739 37.725 28.1989 37.175 28.0076C36.6 27.8376 36.2 27.7526 35.775 28.2626C35.35 28.7939 34.175 29.9839 33.825 30.3239C33.475 30.6851 33.1 30.7276 32.475 30.4514C31.85 30.1964 29.85 29.6226 27.5 27.8376C25.65 26.4351 24.425 24.7139 24.05 24.1826C23.7 23.6514 24 23.3751 24.325 23.0989C24.6 22.8651 24.95 22.4826 25.25 22.1851C25.55 21.8876 25.675 21.6539 25.875 21.3139C26.075 20.9526 25.975 20.6551 25.825 20.4001C25.675 20.1451 24.425 17.5526 23.925 16.4901C23.425 15.4701 22.9 15.5976 22.525 15.5764H21.325C20.9 15.5764 20.25 15.7039 19.675 16.2351C19.125 16.7664 17.525 18.0414 17.525 20.6339C17.525 23.2264 19.75 25.7339 20.05 26.0739C20.35 26.4351 24.425 31.7476 30.625 34.0214C32.1 34.5739 33.25 34.8926 34.15 35.1264C35.625 35.5301 36.975 35.4664 38.05 35.3389C39.25 35.1901 41.725 34.0639 42.225 32.8314C42.75 31.5989 42.75 30.5576 42.575 30.3239C42.4 30.0901 42.025 29.9839 41.4 29.7289Z" fill="#3F5947"/>
</svg>
