<svg width="55" height="48" viewBox="0 0 55 48" fill="none" xmlns="http://www.w3.org/2000/svg">
<path d="M9.16667 40C7.90625 40 6.82764 39.6087 5.93083 38.826C5.03403 38.0433 4.58486 37.1013 4.58333 36V12C4.58333 10.9 5.0325 9.95867 5.93083 9.176C6.82917 8.39333 7.90778 8.00133 9.16667 8H45.8333C47.0938 8 48.1731 8.392 49.0715 9.176C49.9698 9.96 50.4182 10.9013 50.4167 12V36C50.4167 37.1 49.9683 38.042 49.0715 38.826C48.1747 39.61 47.0953 40.0013 45.8333 40H9.16667ZM27.5 26L45.8333 16V12L27.5 22L9.16667 12V16L27.5 26Z" fill="#3F5947"/>
</svg>
