<svg width="35" height="34" viewBox="0 0 35 34" fill="none" xmlns="http://www.w3.org/2000/svg">
<path d="M12.5764 6.74799C10.9452 6.8094 9.47048 7.37865 8.68204 8.15049C8.59494 8.23559 8.49155 8.30309 8.37776 8.34913C8.26398 8.39517 8.14204 8.41884 8.0189 8.4188C7.89576 8.41875 7.77384 8.395 7.66009 8.34888C7.54634 8.30277 7.44299 8.2352 7.35595 8.15003C7.26891 8.06486 7.19988 7.96376 7.15279 7.85251C7.10571 7.74126 7.0815 7.62202 7.08154 7.50162C7.08159 7.38122 7.10588 7.262 7.15305 7.15078C7.20021 7.03956 7.26932 6.93851 7.35642 6.8534C8.57236 5.66449 10.5524 4.98982 12.5033 4.91557C14.4674 4.84132 16.6114 5.36657 18.1133 6.83507C18.2891 7.00707 18.3878 7.24031 18.3877 7.48348C18.3876 7.72664 18.2887 7.95981 18.1128 8.13169C17.9369 8.30358 17.6984 8.40009 17.4497 8.4C17.201 8.39992 16.9625 8.30324 16.7867 8.13124C15.7649 7.13115 14.1955 6.68565 12.5764 6.74707" fill="#51855E"/>
<path fill-rule="evenodd" clip-rule="evenodd" d="M22.1275 20.102C23.9862 17.954 25.0043 15.2304 25 12.4167C25 5.835 19.5437 0.5 12.8125 0.5C6.08125 0.5 0.625 5.835 0.625 12.4167C0.625 18.9983 6.08125 24.3333 12.8125 24.3333C15.8078 24.3333 18.55 23.2773 20.6725 21.5247L20.3125 23.5487L27.3569 30.4365L31.2419 26.6378L24.1975 19.75L22.1275 20.102ZM12.8125 21.5833C17.9903 21.5833 22.1875 17.4794 22.1875 12.4167C22.1875 7.35392 17.9903 3.25 12.8125 3.25C7.63469 3.25 3.4375 7.35392 3.4375 12.4167C3.4375 17.4794 7.63469 21.5833 12.8125 21.5833Z" fill="#51855E"/>
<path d="M28.6826 31.7327L32.5676 27.934L33.8389 29.177C34.5542 29.8764 34.5542 31.0103 33.8389 31.7088L32.5432 32.9757C31.8279 33.6751 30.6682 33.6751 29.9539 32.9757L28.6826 31.7327Z" fill="#51855E"/>
</svg>
