<svg width="33" height="20" viewBox="0 0 33 20" fill="none" xmlns="http://www.w3.org/2000/svg">
<path d="M16.5 0.25C23.3298 0.25 27.3871 3.03886 29.7412 5.81348C30.9211 7.20422 31.6768 8.59567 32.1367 9.63867C32.3665 10.1598 32.5221 10.5935 32.6201 10.8955C32.6691 11.0464 32.7035 11.1646 32.7256 11.2441C32.7276 11.2516 32.7296 11.2589 32.7314 11.2656C32.7304 11.2674 32.7296 11.2697 32.7285 11.2715C32.691 11.3326 32.6338 11.4232 32.5566 11.5391C32.4018 11.7716 32.1658 12.1062 31.8467 12.5078C31.2083 13.3111 30.2355 14.384 28.8994 15.457C26.2284 17.602 22.1051 19.75 16.2939 19.75C10.4851 19.75 6.46695 17.5498 3.90039 15.3535C2.61602 14.2544 1.69458 13.155 1.09473 12.332C0.794935 11.9207 0.575274 11.5789 0.431641 11.3408C0.359941 11.222 0.307107 11.129 0.272461 11.0664C0.270468 11.0628 0.268474 11.0591 0.266602 11.0557C0.268798 11.0478 0.271898 11.0392 0.274414 11.0303C0.296489 10.9524 0.331054 10.837 0.379883 10.6895C0.477809 10.3935 0.633548 9.96804 0.863281 9.45703C1.32293 8.43466 2.07734 7.07058 3.25684 5.70703C5.61029 2.98639 9.66808 0.25 16.5 0.25ZM8.5459 3.69141C4.34918 5.90311 2.66795 9.22392 2.03711 10.7754L1.98828 10.8945L2.05762 11.0029C3.32491 13.0065 7.72576 18.0762 16.2939 18.0762C25.0692 18.0761 29.466 13.0051 30.9326 11.0176L31.0156 10.9053L30.9629 10.7754C30.3358 9.2332 28.654 5.68419 24.4443 3.6875L23.9736 3.46387L24.0947 3.9707C24.3011 4.84089 24.5 5.68484 24.5 6.73926C24.4999 11.3963 20.8872 15.1846 16.5 15.1846C12.1128 15.1846 8.50007 11.3963 8.5 6.73926C8.5 5.68484 8.69888 4.84089 8.90527 3.9707L9.0332 3.43555L8.5459 3.69141ZM13.5332 2.36035C13.4836 2.36169 13.4116 2.36387 13.3232 2.36914C13.1468 2.37968 12.9005 2.40128 12.6211 2.44336C12.0684 2.5266 11.3574 2.69596 10.7979 3.0498L10.75 3.08008L10.7197 3.12793L10.7188 3.12891C10.7182 3.1298 10.7177 3.13138 10.7168 3.13281C10.7148 3.13602 10.7115 3.14078 10.708 3.14648C10.7011 3.15786 10.6918 3.17436 10.6797 3.19531C10.6553 3.23747 10.6206 3.29857 10.5801 3.37695C10.499 3.53361 10.3921 3.7601 10.2852 4.04199C10.0716 4.60482 9.85645 5.3966 9.85645 6.30469C9.85649 7.09875 10.0178 7.77813 10.1787 8.25879C10.2593 8.49943 10.3401 8.69138 10.4014 8.82422C10.432 8.89067 10.458 8.9427 10.4766 8.97852C10.4856 8.99603 10.4928 9.00981 10.498 9.01953C10.5007 9.02435 10.5033 9.02845 10.5049 9.03125C10.5057 9.03265 10.5063 9.03428 10.5068 9.03516L10.5078 9.03613L10.7246 8.91309L10.5078 9.03711L10.5967 9.19238L10.7725 9.1582L13.041 8.72363L13.3584 8.66309L13.2197 8.37109L13.2168 8.36621C13.2145 8.36114 13.211 8.35245 13.2061 8.34082C13.1962 8.31756 13.182 8.28119 13.1641 8.23242C13.1282 8.13476 13.0796 7.98677 13.0303 7.79199C12.9317 7.40235 12.8311 6.82507 12.8311 6.08691C12.8311 5.37278 13.0761 4.53816 13.3311 3.86621C13.4573 3.5336 13.583 3.24691 13.6777 3.04395C13.725 2.94261 13.7647 2.86231 13.792 2.80762L13.8311 2.72949C13.8317 2.72816 13.8326 2.7273 13.833 2.72656L13.834 2.72559L14.0273 2.3584H13.5908C13.5774 2.35857 13.5578 2.35969 13.5332 2.36035Z" fill="#6E949A" stroke="black" stroke-width="0.5"/>
</svg>
