<svg width="77" height="55" viewBox="0 0 77 55" fill="none" xmlns="http://www.w3.org/2000/svg">
<g filter="url(#filter0_d_541_371)">
<path d="M40.563 36.3095L42.7866 46.2802H42.7876C42.7943 46.3191 42.7853 46.3644 42.7407 46.4111C42.6941 46.4599 42.6155 46.4998 42.5171 46.4999H39.1411C39.0239 46.4999 38.9376 46.4422 38.894 46.3769L38.8647 46.3105L36.6577 36.3095H40.563ZM54.98 36.3095L52.7729 46.3105L52.772 46.3154C52.7641 46.3529 52.7395 46.3968 52.6899 46.4345C52.6396 46.4729 52.5694 46.499 52.4907 46.4999H49.1206C49.0222 46.4998 48.9436 46.4598 48.897 46.4111C48.8636 46.3761 48.8501 46.3418 48.8481 46.3105L48.8501 46.2802L51.0747 36.3095H54.98Z" fill="#FF5E59" stroke="black"/>
<path d="M13.7344 0.5H17.9463L18.2803 0.509766C18.946 0.546695 19.5987 0.688352 20.209 0.927734L20.5098 1.05566C21.3033 1.41781 21.9895 1.93972 22.5156 2.57812L22.665 2.76074H22.9014L53.2861 2.73828C56.0191 2.73506 58.7205 3.2616 61.209 4.28125C63.6973 5.30088 65.9144 6.78913 67.7129 8.64453L68.5713 9.53125V5.30469C68.5713 5.11404 68.8073 4.87548 69.1191 4.94922L69.1816 4.96875L69.1855 4.96973C71.1599 5.67049 72.5 7.38149 72.5 9.35547V20.1426C72.5 24.5436 70.6864 28.5629 67.7119 31.6348L67.5713 31.7803V46.3066C67.5712 46.3402 67.5569 46.3838 67.5107 46.4258C67.4638 46.4684 67.3923 46.5 67.3076 46.5H63.9072C63.8226 46.5 63.751 46.4683 63.7041 46.4258C63.6579 46.3838 63.6427 46.3402 63.6426 46.3066V42.5234C63.6425 41.9 63.4188 41.3332 62.9688 40.8428L62.9297 40.7998L62.8818 40.7676L57.6826 37.2314L57.5938 37.1709L57.4883 37.1523L45.8818 35.0889L45.7969 35.0742L45.7119 35.0879L31.0244 37.5547L30.6074 37.625V46.3066C30.6073 46.3402 30.5921 46.3838 30.5459 46.4258C30.499 46.4683 30.4274 46.5 30.3428 46.5H26.9424C26.8577 46.5 26.7862 46.4684 26.7393 46.4258C26.6931 46.3838 26.6788 46.3402 26.6787 46.3066V41.1582C26.6786 40.5402 26.4409 39.9504 26.0342 39.4971L25.8496 39.3115L12.8623 27.5166C12.0463 26.7533 10.9369 26.3574 9.81543 26.3574H6.31641C6.30725 26.3574 6.29815 26.3556 6.28906 26.3555L6.29297 13.9297L6.31934 13.9287H9.69238C10.7148 13.9287 11.7154 13.3994 12.1826 12.4941L12.1816 12.4932C13.306 10.4325 14.8629 8.6073 16.7334 7.10449L17.1084 6.80273L16.8213 6.41602L13.125 1.44727L13.1201 1.44141L13.0713 1.36719C12.9722 1.19184 12.9863 1.00724 13.0791 0.847656C13.1752 0.68255 13.3619 0.539823 13.6191 0.506836L13.7344 0.5Z" fill="#FF8687" stroke="black"/>
<path d="M33.1768 34.071H52.916C54.9928 34.071 56.6472 35.4815 56.873 37.235C55.7093 37.4425 54.5081 37.5475 53.2861 37.5475H31.6074V35.4518C31.6074 34.7428 32.2731 34.0712 33.1768 34.071ZM5.83496 13.9841C7.36205 14.252 8.42871 15.4216 8.42871 16.7858V23.4997C8.42871 24.8635 7.36241 26.0321 5.83594 26.3005C5.50738 26.2193 5.21478 26.0618 4.98828 25.8464L4.8877 25.7419C4.66529 25.4906 4.5362 25.1918 4.50684 24.8845L4.5 24.7526V15.5319C4.50023 14.8248 5.04382 14.1744 5.83496 13.9841Z" fill="#FBB8AB" stroke="black"/>
<path d="M17.5537 16.1667C18.0138 16.1668 18.2852 16.4795 18.2852 16.7858V19.0241C18.285 19.3302 18.0136 19.6431 17.5537 19.6432C17.0936 19.6432 16.8215 19.3303 16.8213 19.0241V16.7858C16.8213 16.4795 17.0935 16.1667 17.5537 16.1667Z" fill="#1C1C1C" stroke="black"/>
</g>
<defs>
<filter id="filter0_d_541_371" x="0" y="0" width="77" height="55" filterUnits="userSpaceOnUse" color-interpolation-filters="sRGB">
<feFlood flood-opacity="0" result="BackgroundImageFix"/>
<feColorMatrix in="SourceAlpha" type="matrix" values="0 0 0 0 0 0 0 0 0 0 0 0 0 0 0 0 0 0 127 0" result="hardAlpha"/>
<feOffset dy="4"/>
<feGaussianBlur stdDeviation="2"/>
<feComposite in2="hardAlpha" operator="out"/>
<feColorMatrix type="matrix" values="0 0 0 0 0 0 0 0 0 0 0 0 0 0 0 0 0 0 0.25 0"/>
<feBlend mode="normal" in2="BackgroundImageFix" result="effect1_dropShadow_541_371"/>
<feBlend mode="normal" in="SourceGraphic" in2="effect1_dropShadow_541_371" result="shape"/>
</filter>
</defs>
</svg>
