<svg width="45" height="45" viewBox="0 0 45 45" fill="none" xmlns="http://www.w3.org/2000/svg">
<g clip-path="url(#clip0_964_1336)">
<g filter="url(#filter0_d_964_1336)">
<path d="M22.4062 33.75C23.0625 33.75 23.6175 33.5231 24.0713 33.0694C24.525 32.6156 24.7513 32.0613 24.75 31.4063C24.7488 30.7513 24.5225 30.1963 24.0713 29.7413C23.62 29.2863 23.065 29.06 22.4062 29.0625C21.7475 29.065 21.1931 29.2919 20.7431 29.7431C20.2931 30.1944 20.0662 30.7488 20.0625 31.4063C20.0588 32.0638 20.2856 32.6188 20.7431 33.0713C21.2006 33.5238 21.755 33.75 22.4062 33.75ZM20.7188 26.5313H24.1875C24.1875 25.5 24.305 24.6875 24.54 24.0938C24.775 23.5 25.4388 22.6875 26.5312 21.6563C27.3438 20.8438 27.9844 20.07 28.4531 19.335C28.9219 18.6 29.1563 17.7175 29.1563 16.6875C29.1563 14.9375 28.5156 13.5938 27.2344 12.6563C25.9531 11.7188 24.4375 11.25 22.6875 11.25C20.9063 11.25 19.4613 11.7188 18.3525 12.6563C17.2438 13.5938 16.47 14.7188 16.0313 16.0313L19.125 17.25C19.2813 16.6875 19.6331 16.0781 20.1806 15.4219C20.7281 14.7656 21.5638 14.4375 22.6875 14.4375C23.6875 14.4375 24.4375 14.7113 24.9375 15.2588C25.4375 15.8063 25.6875 16.4075 25.6875 17.0625C25.6875 17.6875 25.5 18.2738 25.125 18.8213C24.75 19.3688 24.2812 19.8763 23.7188 20.3438C22.3438 21.5625 21.5 22.4844 21.1875 23.1094C20.875 23.7344 20.7188 24.875 20.7188 26.5313ZM22.5 41.25C19.9062 41.25 17.4688 40.7581 15.1875 39.7744C12.9063 38.7906 10.9219 37.4544 9.23438 35.7656C7.54688 34.0769 6.21125 32.0925 5.2275 29.8125C4.24375 27.5325 3.75125 25.095 3.75 22.5C3.74875 19.905 4.24125 17.4675 5.2275 15.1875C6.21375 12.9075 7.54938 10.9231 9.23438 9.23438C10.9194 7.54563 12.9038 6.21001 15.1875 5.22751C17.4713 4.24501 19.9088 3.75251 22.5 3.75001C25.0913 3.74751 27.5288 4.24001 29.8125 5.22751C32.0963 6.21501 34.0806 7.55063 35.7656 9.23438C37.4506 10.9181 38.7869 12.9025 39.7744 15.1875C40.7619 17.4725 41.2538 19.91 41.25 22.5C41.2463 25.09 40.7538 27.5275 39.7725 29.8125C38.7913 32.0975 37.4556 34.0819 35.7656 35.7656C34.0756 37.4494 32.0913 38.7856 29.8125 39.7744C27.5338 40.7631 25.0963 41.255 22.5 41.25Z" fill="white"/>
<path d="M22.5 4.25C24.8679 4.24772 27.0988 4.6696 29.1963 5.5127L29.6143 5.68652C31.7035 6.58992 33.5312 7.78969 35.1016 9.28516L35.4121 9.58789C37.0504 11.225 38.3518 13.1561 39.3154 15.3857C40.2746 17.6053 40.7536 19.9748 40.75 22.499C40.7463 25.0242 40.2669 27.395 39.3135 29.6152C38.4161 31.7049 37.217 33.5326 35.7168 35.1016L35.4131 35.4111C33.872 36.9465 32.0778 38.1868 30.0273 39.1309L29.6133 39.3154C27.5388 40.2155 25.3271 40.693 22.9736 40.7451L22.501 40.75H22.5C20.1294 40.75 17.8982 40.3293 15.8027 39.4893L15.3857 39.3154C13.2993 38.4157 11.4718 37.2154 9.89941 35.7158L9.58789 35.4121C8.04945 33.8725 6.8098 32.0793 5.87012 30.0283L5.68652 29.6143C4.73102 27.3997 4.25125 25.0299 4.25 22.5L4.25586 22.0273C4.30739 19.8312 4.72674 17.7575 5.51269 15.8027L5.68652 15.3857C6.58876 13.3 7.78834 11.4721 9.28515 9.89844L9.58789 9.58789C11.1237 8.04864 12.9169 6.80874 14.9707 5.87012L15.3848 5.68652C17.4649 4.79164 19.6782 4.31411 22.0283 4.25586L22.5 4.25ZM22.4043 28.5625C21.7166 28.5651 21.1083 28.7771 20.6006 29.1973L20.3887 29.3896C19.9109 29.8687 19.6404 30.4509 19.5771 31.1143L19.5625 31.4033C19.5586 32.0936 19.7708 32.7048 20.1963 33.2148L20.3916 33.4268C20.944 33.9731 21.6251 34.25 22.4062 34.25C23.0937 34.25 23.7029 34.0378 24.2129 33.6162L24.4248 33.4229C24.9061 32.9416 25.1779 32.3585 25.2373 31.6943L25.25 31.4053C25.2485 30.622 24.9719 29.9403 24.4258 29.3896C23.9459 28.9057 23.3621 28.6327 22.6953 28.5742L22.4043 28.5625ZM22.6875 10.75C20.9326 10.75 19.4447 11.1846 18.2617 12.0879L18.0293 12.2744C16.8543 13.268 16.0259 14.4694 15.5566 15.873L15.4062 16.3223L15.8477 16.4961L18.9414 17.7148L19.458 17.9189L19.6064 17.3838C19.7207 16.9725 19.9693 16.5024 20.3789 15.9727L20.5645 15.7422C20.989 15.2333 21.6621 14.9375 22.6875 14.9375C23.4842 14.9375 24.0391 15.1265 24.417 15.4492L24.5684 15.5957C24.9961 16.0641 25.1875 16.5489 25.1875 17.0625C25.1875 17.5155 25.07 17.9461 24.8252 18.3613L24.7129 18.5391C24.3666 19.0447 23.9298 19.5181 23.3994 19.959L23.3926 19.9639L23.3867 19.9697C22.6918 20.5857 22.1232 21.1332 21.6855 21.6113C21.307 22.025 21.011 22.4042 20.8174 22.7432L20.7402 22.8857C20.3697 23.6268 20.2187 24.8761 20.2187 26.5312V27.0312H24.6875V26.5312C24.6875 25.654 24.7761 24.9769 24.9336 24.4795L25.0049 24.2773C25.1952 23.7969 25.7818 23.0505 26.874 22.0195L26.8799 22.0146L26.8848 22.0098C27.7153 21.1792 28.3817 20.377 28.875 19.6035C29.4035 18.7747 29.6562 17.795 29.6562 16.6875C29.6562 14.915 29.0392 13.4839 27.7881 12.4531L27.5293 12.2529C26.1536 11.2464 24.5322 10.75 22.6875 10.75Z" stroke="black"/>
</g>
</g>
<defs>
<filter id="filter0_d_964_1336" x="-0.250002" y="3.75" width="45.5" height="45.5" filterUnits="userSpaceOnUse" color-interpolation-filters="sRGB">
<feFlood flood-opacity="0" result="BackgroundImageFix"/>
<feColorMatrix in="SourceAlpha" type="matrix" values="0 0 0 0 0 0 0 0 0 0 0 0 0 0 0 0 0 0 127 0" result="hardAlpha"/>
<feOffset dy="4"/>
<feGaussianBlur stdDeviation="2"/>
<feComposite in2="hardAlpha" operator="out"/>
<feColorMatrix type="matrix" values="0 0 0 0 0 0 0 0 0 0 0 0 0 0 0 0 0 0 0.25 0"/>
<feBlend mode="normal" in2="BackgroundImageFix" result="effect1_dropShadow_964_1336"/>
<feBlend mode="normal" in="SourceGraphic" in2="effect1_dropShadow_964_1336" result="shape"/>
</filter>
<clipPath id="clip0_964_1336">
<rect width="45" height="45" fill="white"/>
</clipPath>
</defs>
</svg>
