<svg width="140" height="124" viewBox="0 0 140 124" fill="none" xmlns="http://www.w3.org/2000/svg">
<g filter="url(#filter0_d_2207_1926)">
<path fill-rule="evenodd" clip-rule="evenodd" d="M69.8333 0C33.4736 0 4 25.9293 4 57.9167C4 89.904 33.4736 115.833 69.8333 115.833C106.193 115.833 135.667 89.904 135.667 57.9167C135.667 25.9293 106.193 0 69.8333 0ZM46.7917 43.4375C46.7917 40.7755 47.3877 38.1396 48.5456 35.6802C49.7036 33.2208 51.4008 30.9862 53.5404 29.1039C55.68 27.2215 58.2201 25.7284 61.0157 24.7097C63.8112 23.691 66.8075 23.1667 69.8333 23.1667C72.8592 23.1667 75.8555 23.691 78.651 24.7097C81.4465 25.7284 83.9866 27.2215 86.1263 29.1039C88.2659 30.9862 89.9631 33.2208 91.1211 35.6802C92.279 38.1396 92.875 40.7755 92.875 43.4375C92.875 48.8137 90.4474 53.9696 86.1263 57.7711C81.8051 61.5727 75.9444 63.7083 69.8333 63.7083C63.7223 63.7083 57.8616 61.5727 53.5404 57.7711C49.2193 53.9696 46.7917 48.8137 46.7917 43.4375ZM111.032 86.7823C106.102 92.2343 99.8369 96.6368 92.7034 99.6613C85.5698 102.686 77.7521 104.254 69.8333 104.25C61.9146 104.254 54.0968 102.686 46.9633 99.6613C39.8298 96.6368 33.5645 92.2343 28.6348 86.7823C39.3064 80.0466 53.8688 75.2917 69.8333 75.2917C85.7979 75.2917 100.36 80.0466 111.032 86.7823Z" fill="white"/>
<path d="M69.833 0.5C105.979 0.5 135.167 26.264 135.167 57.917C135.167 89.5698 105.979 115.333 69.833 115.333C33.6876 115.333 4.5002 89.5697 4.5 57.917C4.5 26.2641 33.6874 0.500156 69.833 0.5ZM69.833 74.792C53.7728 74.7921 39.1184 79.5741 28.3682 86.3594L27.8652 86.6768L28.2637 87.1172C33.2447 92.626 39.5718 97.0707 46.7686 100.122C53.965 103.173 61.849 104.753 69.833 104.749C77.8173 104.753 85.7018 103.173 92.8984 100.122C100.095 97.0707 106.421 92.626 111.402 87.1172L111.802 86.6768L111.299 86.3594C100.549 79.574 85.8934 74.792 69.833 74.792ZM69.833 22.667C66.7499 22.667 63.6959 23.2013 60.8447 24.2402C57.9934 25.2793 55.3983 26.8033 53.21 28.7285C51.0216 30.6538 49.2813 32.9426 48.0928 35.4668C46.9041 37.9913 46.292 40.7003 46.292 43.4375C46.292 48.9684 48.7896 54.2576 53.21 58.1465C57.6283 62.0335 63.6087 64.2079 69.833 64.208C76.0573 64.208 82.0377 62.0334 86.4561 58.1465C90.8765 54.2576 93.375 48.9684 93.375 43.4375C93.375 40.7003 92.7619 37.9913 91.5732 35.4668C90.3847 32.9427 88.6444 30.6537 86.4561 28.7285C84.2678 26.8035 81.6735 25.2792 78.8223 24.2402C75.9709 23.2012 72.9163 22.667 69.833 22.667Z" stroke="black"/>
</g>
<defs>
<filter id="filter0_d_2207_1926" x="0" y="0" width="139.667" height="123.833" filterUnits="userSpaceOnUse" color-interpolation-filters="sRGB">
<feFlood flood-opacity="0" result="BackgroundImageFix"/>
<feColorMatrix in="SourceAlpha" type="matrix" values="0 0 0 0 0 0 0 0 0 0 0 0 0 0 0 0 0 0 127 0" result="hardAlpha"/>
<feOffset dy="4"/>
<feGaussianBlur stdDeviation="2"/>
<feComposite in2="hardAlpha" operator="out"/>
<feColorMatrix type="matrix" values="0 0 0 0 0 0 0 0 0 0 0 0 0 0 0 0 0 0 0.25 0"/>
<feBlend mode="normal" in2="BackgroundImageFix" result="effect1_dropShadow_2207_1926"/>
<feBlend mode="normal" in="SourceGraphic" in2="effect1_dropShadow_2207_1926" result="shape"/>
</filter>
</defs>
</svg>
